<mxfile host="Electron" modified="2023-07-03T04:46:37.782Z" agent="Mozilla/5.0 (Windows NT 10.0; Win64; x64) AppleWebKit/537.36 (KHTML, like Gecko) draw.io/21.5.1 Chrome/112.0.5615.204 Electron/24.6.0 Safari/537.36" etag="bxqv1q1WQEeLyTB1-Gj0" version="21.5.1" type="device">
  <diagram id="C5RBs43oDa-KdzZeNtuy" name="Page-1">
    <mxGraphModel dx="1980" dy="2068" grid="0" gridSize="10" guides="1" tooltips="1" connect="1" arrows="1" fold="1" page="1" pageScale="1" pageWidth="2336" pageHeight="1654" math="0" shadow="0">
      <root>
        <mxCell id="WIyWlLk6GJQsqaUBKTNV-0" />
        <mxCell id="WIyWlLk6GJQsqaUBKTNV-1" parent="WIyWlLk6GJQsqaUBKTNV-0" />
        <mxCell id="zkfFHV4jXpPFQw0GAbJ--6" value="AlunoGraduacao" style="swimlane;fontStyle=1;align=center;verticalAlign=top;childLayout=stackLayout;horizontal=1;startSize=26;horizontalStack=0;resizeParent=1;resizeLast=0;collapsible=1;marginBottom=0;rounded=0;shadow=0;strokeWidth=1;" parent="WIyWlLk6GJQsqaUBKTNV-1" vertex="1">
          <mxGeometry x="881.9999999999999" y="43" width="260" height="632" as="geometry">
            <mxRectangle x="30" y="360" width="160" height="26" as="alternateBounds" />
          </mxGeometry>
        </mxCell>
        <mxCell id="fqb2mtGp8k7TycbTAKJE-1" value="- nome: String" style="text;align=left;verticalAlign=top;spacingLeft=4;spacingRight=4;overflow=hidden;rotatable=0;points=[[0,0.5],[1,0.5]];portConstraint=eastwest;rounded=0;shadow=0;html=0;" vertex="1" parent="zkfFHV4jXpPFQw0GAbJ--6">
          <mxGeometry y="26" width="260" height="26" as="geometry" />
        </mxCell>
        <mxCell id="fqb2mtGp8k7TycbTAKJE-13" value="- codigo: String" style="text;align=left;verticalAlign=top;spacingLeft=4;spacingRight=4;overflow=hidden;rotatable=0;points=[[0,0.5],[1,0.5]];portConstraint=eastwest;rounded=0;shadow=0;html=0;" vertex="1" parent="zkfFHV4jXpPFQw0GAbJ--6">
          <mxGeometry y="52" width="260" height="26" as="geometry" />
        </mxCell>
        <mxCell id="fqb2mtGp8k7TycbTAKJE-19" value="- limiteEmprestimos: int = 3" style="text;align=left;verticalAlign=top;spacingLeft=4;spacingRight=4;overflow=hidden;rotatable=0;points=[[0,0.5],[1,0.5]];portConstraint=eastwest;rounded=0;shadow=0;html=0;" vertex="1" parent="zkfFHV4jXpPFQw0GAbJ--6">
          <mxGeometry y="78" width="260" height="26" as="geometry" />
        </mxCell>
        <mxCell id="fqb2mtGp8k7TycbTAKJE-20" value="- limiteReservas: int = 3" style="text;align=left;verticalAlign=top;spacingLeft=4;spacingRight=4;overflow=hidden;rotatable=0;points=[[0,0.5],[1,0.5]];portConstraint=eastwest;rounded=0;shadow=0;html=0;" vertex="1" parent="zkfFHV4jXpPFQw0GAbJ--6">
          <mxGeometry y="104" width="260" height="26" as="geometry" />
        </mxCell>
        <mxCell id="fqb2mtGp8k7TycbTAKJE-21" value="- devolucao: int = 3" style="text;align=left;verticalAlign=top;spacingLeft=4;spacingRight=4;overflow=hidden;rotatable=0;points=[[0,0.5],[1,0.5]];portConstraint=eastwest;rounded=0;shadow=0;html=0;" vertex="1" parent="zkfFHV4jXpPFQw0GAbJ--6">
          <mxGeometry y="130" width="260" height="26" as="geometry" />
        </mxCell>
        <mxCell id="fqb2mtGp8k7TycbTAKJE-22" value="- historicoReservas: List&lt;Reserva&gt;" style="text;align=left;verticalAlign=top;spacingLeft=4;spacingRight=4;overflow=hidden;rotatable=0;points=[[0,0.5],[1,0.5]];portConstraint=eastwest;rounded=0;shadow=0;html=0;" vertex="1" parent="zkfFHV4jXpPFQw0GAbJ--6">
          <mxGeometry y="156" width="260" height="26" as="geometry" />
        </mxCell>
        <mxCell id="zkfFHV4jXpPFQw0GAbJ--8" value="- reservasAtuais: List&lt;Reserva&gt;" style="text;align=left;verticalAlign=top;spacingLeft=4;spacingRight=4;overflow=hidden;rotatable=0;points=[[0,0.5],[1,0.5]];portConstraint=eastwest;rounded=0;shadow=0;html=0;" parent="zkfFHV4jXpPFQw0GAbJ--6" vertex="1">
          <mxGeometry y="182" width="260" height="26" as="geometry" />
        </mxCell>
        <mxCell id="fqb2mtGp8k7TycbTAKJE-23" value="- emprestimos: List&lt;Emprestimo&gt;" style="text;align=left;verticalAlign=top;spacingLeft=4;spacingRight=4;overflow=hidden;rotatable=0;points=[[0,0.5],[1,0.5]];portConstraint=eastwest;rounded=0;shadow=0;html=0;" vertex="1" parent="zkfFHV4jXpPFQw0GAbJ--6">
          <mxGeometry y="208" width="260" height="26" as="geometry" />
        </mxCell>
        <mxCell id="fqb2mtGp8k7TycbTAKJE-24" value="- emprestimosAtuais: List&lt;Emprestimo&gt;" style="text;align=left;verticalAlign=top;spacingLeft=4;spacingRight=4;overflow=hidden;rotatable=0;points=[[0,0.5],[1,0.5]];portConstraint=eastwest;rounded=0;shadow=0;html=0;" vertex="1" parent="zkfFHV4jXpPFQw0GAbJ--6">
          <mxGeometry y="234" width="260" height="26" as="geometry" />
        </mxCell>
        <mxCell id="zkfFHV4jXpPFQw0GAbJ--9" value="" style="line;html=1;strokeWidth=1;align=left;verticalAlign=middle;spacingTop=-1;spacingLeft=3;spacingRight=3;rotatable=0;labelPosition=right;points=[];portConstraint=eastwest;" parent="zkfFHV4jXpPFQw0GAbJ--6" vertex="1">
          <mxGeometry y="260" width="260" height="8" as="geometry" />
        </mxCell>
        <mxCell id="fqb2mtGp8k7TycbTAKJE-25" value="+ emprestimoLivro(String): void" style="text;align=left;verticalAlign=top;spacingLeft=4;spacingRight=4;overflow=hidden;rotatable=0;points=[[0,0.5],[1,0.5]];portConstraint=eastwest;fontStyle=0" vertex="1" parent="zkfFHV4jXpPFQw0GAbJ--6">
          <mxGeometry y="268" width="260" height="26" as="geometry" />
        </mxCell>
        <mxCell id="fqb2mtGp8k7TycbTAKJE-26" value="+ reservarLivro(String): void" style="text;align=left;verticalAlign=top;spacingLeft=4;spacingRight=4;overflow=hidden;rotatable=0;points=[[0,0.5],[1,0.5]];portConstraint=eastwest;fontStyle=0" vertex="1" parent="zkfFHV4jXpPFQw0GAbJ--6">
          <mxGeometry y="294" width="260" height="26" as="geometry" />
        </mxCell>
        <mxCell id="fqb2mtGp8k7TycbTAKJE-27" value="+ devolverLivro(String): void" style="text;align=left;verticalAlign=top;spacingLeft=4;spacingRight=4;overflow=hidden;rotatable=0;points=[[0,0.5],[1,0.5]];portConstraint=eastwest;fontStyle=0" vertex="1" parent="zkfFHV4jXpPFQw0GAbJ--6">
          <mxGeometry y="320" width="260" height="26" as="geometry" />
        </mxCell>
        <mxCell id="fqb2mtGp8k7TycbTAKJE-28" value="+ removerReservaAtual(Livro): void" style="text;align=left;verticalAlign=top;spacingLeft=4;spacingRight=4;overflow=hidden;rotatable=0;points=[[0,0.5],[1,0.5]];portConstraint=eastwest;fontStyle=0" vertex="1" parent="zkfFHV4jXpPFQw0GAbJ--6">
          <mxGeometry y="346" width="260" height="26" as="geometry" />
        </mxCell>
        <mxCell id="fqb2mtGp8k7TycbTAKJE-29" value="+ adicionarReservaHistorico(Reserva): void" style="text;align=left;verticalAlign=top;spacingLeft=4;spacingRight=4;overflow=hidden;rotatable=0;points=[[0,0.5],[1,0.5]];portConstraint=eastwest;fontStyle=0" vertex="1" parent="zkfFHV4jXpPFQw0GAbJ--6">
          <mxGeometry y="372" width="260" height="26" as="geometry" />
        </mxCell>
        <mxCell id="zkfFHV4jXpPFQw0GAbJ--10" value="- adicionarEmprestimo(Livro): void" style="text;align=left;verticalAlign=top;spacingLeft=4;spacingRight=4;overflow=hidden;rotatable=0;points=[[0,0.5],[1,0.5]];portConstraint=eastwest;fontStyle=0" parent="zkfFHV4jXpPFQw0GAbJ--6" vertex="1">
          <mxGeometry y="398" width="260" height="26" as="geometry" />
        </mxCell>
        <mxCell id="fqb2mtGp8k7TycbTAKJE-33" value="- adicionarReserva(Livro): void" style="text;align=left;verticalAlign=top;spacingLeft=4;spacingRight=4;overflow=hidden;rotatable=0;points=[[0,0.5],[1,0.5]];portConstraint=eastwest;fontStyle=0" vertex="1" parent="zkfFHV4jXpPFQw0GAbJ--6">
          <mxGeometry y="424" width="260" height="26" as="geometry" />
        </mxCell>
        <mxCell id="fqb2mtGp8k7TycbTAKJE-34" value="- obterReserva(String): Reserva" style="text;align=left;verticalAlign=top;spacingLeft=4;spacingRight=4;overflow=hidden;rotatable=0;points=[[0,0.5],[1,0.5]];portConstraint=eastwest;fontStyle=0" vertex="1" parent="zkfFHV4jXpPFQw0GAbJ--6">
          <mxGeometry y="450" width="260" height="26" as="geometry" />
        </mxCell>
        <mxCell id="fqb2mtGp8k7TycbTAKJE-40" value="- obterEmprestimoAtual(String): Emprestimo" style="text;align=left;verticalAlign=top;spacingLeft=4;spacingRight=4;overflow=hidden;rotatable=0;points=[[0,0.5],[1,0.5]];portConstraint=eastwest;fontStyle=0" vertex="1" parent="zkfFHV4jXpPFQw0GAbJ--6">
          <mxGeometry y="476" width="260" height="26" as="geometry" />
        </mxCell>
        <mxCell id="fqb2mtGp8k7TycbTAKJE-35" value="- getLivrosDisponiveis(String): List&lt;Livro&gt;" style="text;align=left;verticalAlign=top;spacingLeft=4;spacingRight=4;overflow=hidden;rotatable=0;points=[[0,0.5],[1,0.5]];portConstraint=eastwest;fontStyle=0" vertex="1" parent="zkfFHV4jXpPFQw0GAbJ--6">
          <mxGeometry y="502" width="260" height="26" as="geometry" />
        </mxCell>
        <mxCell id="fqb2mtGp8k7TycbTAKJE-36" value="- verificaDevedor(): boolean" style="text;align=left;verticalAlign=top;spacingLeft=4;spacingRight=4;overflow=hidden;rotatable=0;points=[[0,0.5],[1,0.5]];portConstraint=eastwest;fontStyle=0" vertex="1" parent="zkfFHV4jXpPFQw0GAbJ--6">
          <mxGeometry y="528" width="260" height="26" as="geometry" />
        </mxCell>
        <mxCell id="fqb2mtGp8k7TycbTAKJE-120" value="+ getCodigo(): String" style="text;align=left;verticalAlign=top;spacingLeft=4;spacingRight=4;overflow=hidden;rotatable=0;points=[[0,0.5],[1,0.5]];portConstraint=eastwest;fontStyle=0" vertex="1" parent="zkfFHV4jXpPFQw0GAbJ--6">
          <mxGeometry y="554" width="260" height="26" as="geometry" />
        </mxCell>
        <mxCell id="fqb2mtGp8k7TycbTAKJE-119" value="+ getNome(): String" style="text;align=left;verticalAlign=top;spacingLeft=4;spacingRight=4;overflow=hidden;rotatable=0;points=[[0,0.5],[1,0.5]];portConstraint=eastwest;fontStyle=0" vertex="1" parent="zkfFHV4jXpPFQw0GAbJ--6">
          <mxGeometry y="580" width="260" height="26" as="geometry" />
        </mxCell>
        <mxCell id="fqb2mtGp8k7TycbTAKJE-32" value="+ exibir(): String" style="text;align=left;verticalAlign=top;spacingLeft=4;spacingRight=4;overflow=hidden;rotatable=0;points=[[0,0.5],[1,0.5]];portConstraint=eastwest;fontStyle=0" vertex="1" parent="zkfFHV4jXpPFQw0GAbJ--6">
          <mxGeometry y="606" width="260" height="26" as="geometry" />
        </mxCell>
        <mxCell id="M-NeAkC2m4nGX7HUwaiX-9" value="Livro" style="swimlane;fontStyle=1;align=center;verticalAlign=top;childLayout=stackLayout;horizontal=1;startSize=26;horizontalStack=0;resizeParent=1;resizeLast=0;collapsible=1;marginBottom=0;rounded=0;shadow=0;strokeWidth=1;" parent="WIyWlLk6GJQsqaUBKTNV-1" vertex="1">
          <mxGeometry x="1301.6" y="885" width="289" height="671" as="geometry">
            <mxRectangle x="550" y="140" width="160" height="26" as="alternateBounds" />
          </mxGeometry>
        </mxCell>
        <mxCell id="M-NeAkC2m4nGX7HUwaiX-10" value="- codigo: String" style="text;align=left;verticalAlign=top;spacingLeft=4;spacingRight=4;overflow=hidden;rotatable=0;points=[[0,0.5],[1,0.5]];portConstraint=eastwest;rounded=0;shadow=0;html=0;" parent="M-NeAkC2m4nGX7HUwaiX-9" vertex="1">
          <mxGeometry y="26" width="289" height="26" as="geometry" />
        </mxCell>
        <mxCell id="fqb2mtGp8k7TycbTAKJE-105" value="- codigoExemplar: String" style="text;align=left;verticalAlign=top;spacingLeft=4;spacingRight=4;overflow=hidden;rotatable=0;points=[[0,0.5],[1,0.5]];portConstraint=eastwest;rounded=0;shadow=0;html=0;" vertex="1" parent="M-NeAkC2m4nGX7HUwaiX-9">
          <mxGeometry y="52" width="289" height="26" as="geometry" />
        </mxCell>
        <mxCell id="M-NeAkC2m4nGX7HUwaiX-16" value="- titulo: String" style="text;align=left;verticalAlign=top;spacingLeft=4;spacingRight=4;overflow=hidden;rotatable=0;points=[[0,0.5],[1,0.5]];portConstraint=eastwest;rounded=0;shadow=0;html=0;" parent="M-NeAkC2m4nGX7HUwaiX-9" vertex="1">
          <mxGeometry y="78" width="289" height="26" as="geometry" />
        </mxCell>
        <mxCell id="M-NeAkC2m4nGX7HUwaiX-17" value="- editora: String" style="text;align=left;verticalAlign=top;spacingLeft=4;spacingRight=4;overflow=hidden;rotatable=0;points=[[0,0.5],[1,0.5]];portConstraint=eastwest;rounded=0;shadow=0;html=0;" parent="M-NeAkC2m4nGX7HUwaiX-9" vertex="1">
          <mxGeometry y="104" width="289" height="26" as="geometry" />
        </mxCell>
        <mxCell id="M-NeAkC2m4nGX7HUwaiX-27" value="- autor: String" style="text;align=left;verticalAlign=top;spacingLeft=4;spacingRight=4;overflow=hidden;rotatable=0;points=[[0,0.5],[1,0.5]];portConstraint=eastwest;rounded=0;shadow=0;html=0;" parent="M-NeAkC2m4nGX7HUwaiX-9" vertex="1">
          <mxGeometry y="130" width="289" height="26" as="geometry" />
        </mxCell>
        <mxCell id="M-NeAkC2m4nGX7HUwaiX-28" value="- edicao: String" style="text;align=left;verticalAlign=top;spacingLeft=4;spacingRight=4;overflow=hidden;rotatable=0;points=[[0,0.5],[1,0.5]];portConstraint=eastwest;rounded=0;shadow=0;html=0;" parent="M-NeAkC2m4nGX7HUwaiX-9" vertex="1">
          <mxGeometry y="156" width="289" height="26" as="geometry" />
        </mxCell>
        <mxCell id="M-NeAkC2m4nGX7HUwaiX-29" value="- anoPublicacao: String" style="text;align=left;verticalAlign=top;spacingLeft=4;spacingRight=4;overflow=hidden;rotatable=0;points=[[0,0.5],[1,0.5]];portConstraint=eastwest;rounded=0;shadow=0;html=0;" parent="M-NeAkC2m4nGX7HUwaiX-9" vertex="1">
          <mxGeometry y="182" width="289" height="26" as="geometry" />
        </mxCell>
        <mxCell id="fqb2mtGp8k7TycbTAKJE-125" value="- status: String" style="text;align=left;verticalAlign=top;spacingLeft=4;spacingRight=4;overflow=hidden;rotatable=0;points=[[0,0.5],[1,0.5]];portConstraint=eastwest;rounded=0;shadow=0;html=0;" vertex="1" parent="M-NeAkC2m4nGX7HUwaiX-9">
          <mxGeometry y="208" width="289" height="26" as="geometry" />
        </mxCell>
        <mxCell id="fqb2mtGp8k7TycbTAKJE-126" value="- usuarioAlugado: IUsuario" style="text;align=left;verticalAlign=top;spacingLeft=4;spacingRight=4;overflow=hidden;rotatable=0;points=[[0,0.5],[1,0.5]];portConstraint=eastwest;rounded=0;shadow=0;html=0;" vertex="1" parent="M-NeAkC2m4nGX7HUwaiX-9">
          <mxGeometry y="234" width="289" height="26" as="geometry" />
        </mxCell>
        <mxCell id="fqb2mtGp8k7TycbTAKJE-130" value="- reservaAtual: Reserva" style="text;align=left;verticalAlign=top;spacingLeft=4;spacingRight=4;overflow=hidden;rotatable=0;points=[[0,0.5],[1,0.5]];portConstraint=eastwest;rounded=0;shadow=0;html=0;" vertex="1" parent="M-NeAkC2m4nGX7HUwaiX-9">
          <mxGeometry y="260" width="289" height="26" as="geometry" />
        </mxCell>
        <mxCell id="fqb2mtGp8k7TycbTAKJE-131" value="- emprestimoAtual: Emprestimo" style="text;align=left;verticalAlign=top;spacingLeft=4;spacingRight=4;overflow=hidden;rotatable=0;points=[[0,0.5],[1,0.5]];portConstraint=eastwest;rounded=0;shadow=0;html=0;" vertex="1" parent="M-NeAkC2m4nGX7HUwaiX-9">
          <mxGeometry y="286" width="289" height="26" as="geometry" />
        </mxCell>
        <mxCell id="fqb2mtGp8k7TycbTAKJE-132" value="- geradorCodigo: int = 1" style="text;align=left;verticalAlign=top;spacingLeft=4;spacingRight=4;overflow=hidden;rotatable=0;points=[[0,0.5],[1,0.5]];portConstraint=eastwest;rounded=0;shadow=0;html=0;" vertex="1" parent="M-NeAkC2m4nGX7HUwaiX-9">
          <mxGeometry y="312" width="289" height="26" as="geometry" />
        </mxCell>
        <mxCell id="fqb2mtGp8k7TycbTAKJE-133" value="- reservas: List&lt;Reserva&gt;" style="text;align=left;verticalAlign=top;spacingLeft=4;spacingRight=4;overflow=hidden;rotatable=0;points=[[0,0.5],[1,0.5]];portConstraint=eastwest;rounded=0;shadow=0;html=0;" vertex="1" parent="M-NeAkC2m4nGX7HUwaiX-9">
          <mxGeometry y="338" width="289" height="26" as="geometry" />
        </mxCell>
        <mxCell id="fqb2mtGp8k7TycbTAKJE-134" value="- observadores: List&lt;Observer&gt;" style="text;align=left;verticalAlign=top;spacingLeft=4;spacingRight=4;overflow=hidden;rotatable=0;points=[[0,0.5],[1,0.5]];portConstraint=eastwest;rounded=0;shadow=0;html=0;" vertex="1" parent="M-NeAkC2m4nGX7HUwaiX-9">
          <mxGeometry y="364" width="289" height="26" as="geometry" />
        </mxCell>
        <mxCell id="fqb2mtGp8k7TycbTAKJE-135" value="- limiteReservasObserver: int = 1" style="text;align=left;verticalAlign=top;spacingLeft=4;spacingRight=4;overflow=hidden;rotatable=0;points=[[0,0.5],[1,0.5]];portConstraint=eastwest;rounded=0;shadow=0;html=0;" vertex="1" parent="M-NeAkC2m4nGX7HUwaiX-9">
          <mxGeometry y="390" width="289" height="26" as="geometry" />
        </mxCell>
        <mxCell id="M-NeAkC2m4nGX7HUwaiX-11" value="" style="line;html=1;strokeWidth=1;align=left;verticalAlign=middle;spacingTop=-1;spacingLeft=3;spacingRight=3;rotatable=0;labelPosition=right;points=[];portConstraint=eastwest;" parent="M-NeAkC2m4nGX7HUwaiX-9" vertex="1">
          <mxGeometry y="416" width="289" height="8" as="geometry" />
        </mxCell>
        <mxCell id="fqb2mtGp8k7TycbTAKJE-136" value="+ devolverItem(IUsuario, Livro, &#xa;Emprestimo): void" style="text;align=left;verticalAlign=top;spacingLeft=4;spacingRight=4;overflow=hidden;rotatable=0;points=[[0,0.5],[1,0.5]];portConstraint=eastwest;fontStyle=0" vertex="1" parent="M-NeAkC2m4nGX7HUwaiX-9">
          <mxGeometry y="424" width="289" height="39" as="geometry" />
        </mxCell>
        <mxCell id="fqb2mtGp8k7TycbTAKJE-137" value="+ reservarItem(IUsuario, Reserva): void" style="text;align=left;verticalAlign=top;spacingLeft=4;spacingRight=4;overflow=hidden;rotatable=0;points=[[0,0.5],[1,0.5]];portConstraint=eastwest;fontStyle=0" vertex="1" parent="M-NeAkC2m4nGX7HUwaiX-9">
          <mxGeometry y="463" width="289" height="26" as="geometry" />
        </mxCell>
        <mxCell id="fqb2mtGp8k7TycbTAKJE-138" value="- getLivrosReservadoCodigo(Livro): List&lt;Livro&gt;" style="text;align=left;verticalAlign=top;spacingLeft=4;spacingRight=4;overflow=hidden;rotatable=0;points=[[0,0.5],[1,0.5]];portConstraint=eastwest;fontStyle=0" vertex="1" parent="M-NeAkC2m4nGX7HUwaiX-9">
          <mxGeometry y="489" width="289" height="26" as="geometry" />
        </mxCell>
        <mxCell id="fqb2mtGp8k7TycbTAKJE-139" value="+ emprestarItem(IUsuario, Emprestimo): void" style="text;align=left;verticalAlign=top;spacingLeft=4;spacingRight=4;overflow=hidden;rotatable=0;points=[[0,0.5],[1,0.5]];portConstraint=eastwest;fontStyle=0" vertex="1" parent="M-NeAkC2m4nGX7HUwaiX-9">
          <mxGeometry y="515" width="289" height="26" as="geometry" />
        </mxCell>
        <mxCell id="fqb2mtGp8k7TycbTAKJE-140" value="+ identificadorExemplar(Object): boolean" style="text;align=left;verticalAlign=top;spacingLeft=4;spacingRight=4;overflow=hidden;rotatable=0;points=[[0,0.5],[1,0.5]];portConstraint=eastwest;fontStyle=0" vertex="1" parent="M-NeAkC2m4nGX7HUwaiX-9">
          <mxGeometry y="541" width="289" height="26" as="geometry" />
        </mxCell>
        <mxCell id="fqb2mtGp8k7TycbTAKJE-141" value="+ exibir(): String" style="text;align=left;verticalAlign=top;spacingLeft=4;spacingRight=4;overflow=hidden;rotatable=0;points=[[0,0.5],[1,0.5]];portConstraint=eastwest;fontStyle=0" vertex="1" parent="M-NeAkC2m4nGX7HUwaiX-9">
          <mxGeometry y="567" width="289" height="26" as="geometry" />
        </mxCell>
        <mxCell id="fqb2mtGp8k7TycbTAKJE-142" value="+ addObserver(Observer): void" style="text;align=left;verticalAlign=top;spacingLeft=4;spacingRight=4;overflow=hidden;rotatable=0;points=[[0,0.5],[1,0.5]];portConstraint=eastwest;fontStyle=0" vertex="1" parent="M-NeAkC2m4nGX7HUwaiX-9">
          <mxGeometry y="593" width="289" height="26" as="geometry" />
        </mxCell>
        <mxCell id="fqb2mtGp8k7TycbTAKJE-143" value="+ removeObserver(Observer): void" style="text;align=left;verticalAlign=top;spacingLeft=4;spacingRight=4;overflow=hidden;rotatable=0;points=[[0,0.5],[1,0.5]];portConstraint=eastwest;fontStyle=0" vertex="1" parent="M-NeAkC2m4nGX7HUwaiX-9">
          <mxGeometry y="619" width="289" height="26" as="geometry" />
        </mxCell>
        <mxCell id="fqb2mtGp8k7TycbTAKJE-144" value="+ notifyObserver(Livro): void" style="text;align=left;verticalAlign=top;spacingLeft=4;spacingRight=4;overflow=hidden;rotatable=0;points=[[0,0.5],[1,0.5]];portConstraint=eastwest;fontStyle=0" vertex="1" parent="M-NeAkC2m4nGX7HUwaiX-9">
          <mxGeometry y="645" width="289" height="26" as="geometry" />
        </mxCell>
        <mxCell id="MtVjQjLznADQQLDuYncj-2" value="" style="endArrow=block;dashed=1;endFill=0;endSize=12;html=1;rounded=0;" parent="WIyWlLk6GJQsqaUBKTNV-1" source="zkfFHV4jXpPFQw0GAbJ--6" target="fqb2mtGp8k7TycbTAKJE-2" edge="1">
          <mxGeometry width="160" relative="1" as="geometry">
            <mxPoint x="722" y="728" as="sourcePoint" />
            <mxPoint x="882" y="728" as="targetPoint" />
            <Array as="points" />
          </mxGeometry>
        </mxCell>
        <mxCell id="MtVjQjLznADQQLDuYncj-17" value="CommandAdicionarNovoObservador" style="swimlane;fontStyle=1;align=center;verticalAlign=top;childLayout=stackLayout;horizontal=1;startSize=48;horizontalStack=0;resizeParent=1;resizeLast=0;collapsible=1;marginBottom=0;rounded=0;shadow=0;strokeWidth=1;" parent="WIyWlLk6GJQsqaUBKTNV-1" vertex="1">
          <mxGeometry x="540" y="49" width="232" height="110" as="geometry">
            <mxRectangle x="30" y="360" width="160" height="26" as="alternateBounds" />
          </mxGeometry>
        </mxCell>
        <mxCell id="MtVjQjLznADQQLDuYncj-20" value="" style="line;html=1;strokeWidth=1;align=left;verticalAlign=middle;spacingTop=-1;spacingLeft=3;spacingRight=3;rotatable=0;labelPosition=right;points=[];portConstraint=eastwest;" parent="MtVjQjLznADQQLDuYncj-17" vertex="1">
          <mxGeometry y="48" width="232" height="8" as="geometry" />
        </mxCell>
        <mxCell id="MtVjQjLznADQQLDuYncj-21" value="+ execute(String[] args): void" style="text;align=left;verticalAlign=top;spacingLeft=4;spacingRight=4;overflow=hidden;rotatable=0;points=[[0,0.5],[1,0.5]];portConstraint=eastwest;fontStyle=0" parent="MtVjQjLznADQQLDuYncj-17" vertex="1">
          <mxGeometry y="56" width="232" height="26" as="geometry" />
        </mxCell>
        <mxCell id="MtVjQjLznADQQLDuYncj-23" value="&lt;&lt;Interface&gt;&gt;&#xa;Command" style="swimlane;fontStyle=3;align=center;verticalAlign=top;childLayout=stackLayout;horizontal=1;startSize=51;horizontalStack=0;resizeParent=1;resizeLast=0;collapsible=1;marginBottom=0;rounded=0;shadow=0;strokeWidth=1;" parent="WIyWlLk6GJQsqaUBKTNV-1" vertex="1">
          <mxGeometry x="321" y="294" width="197" height="138" as="geometry">
            <mxRectangle x="30" y="360" width="160" height="26" as="alternateBounds" />
          </mxGeometry>
        </mxCell>
        <mxCell id="MtVjQjLznADQQLDuYncj-24" value=" " style="text;align=left;verticalAlign=top;spacingLeft=4;spacingRight=4;overflow=hidden;rotatable=0;points=[[0,0.5],[1,0.5]];portConstraint=eastwest;" parent="MtVjQjLznADQQLDuYncj-23" vertex="1">
          <mxGeometry y="51" width="197" height="26" as="geometry" />
        </mxCell>
        <mxCell id="MtVjQjLznADQQLDuYncj-26" value="" style="line;html=1;strokeWidth=1;align=left;verticalAlign=middle;spacingTop=-1;spacingLeft=3;spacingRight=3;rotatable=0;labelPosition=right;points=[];portConstraint=eastwest;" parent="MtVjQjLznADQQLDuYncj-23" vertex="1">
          <mxGeometry y="77" width="197" height="8" as="geometry" />
        </mxCell>
        <mxCell id="MtVjQjLznADQQLDuYncj-27" value="+ execute(String[]): void" style="text;align=left;verticalAlign=top;spacingLeft=4;spacingRight=4;overflow=hidden;rotatable=0;points=[[0,0.5],[1,0.5]];portConstraint=eastwest;fontStyle=0" parent="MtVjQjLznADQQLDuYncj-23" vertex="1">
          <mxGeometry y="85" width="197" height="26" as="geometry" />
        </mxCell>
        <mxCell id="MtVjQjLznADQQLDuYncj-28" value=" " style="text;align=left;verticalAlign=top;spacingLeft=4;spacingRight=4;overflow=hidden;rotatable=0;points=[[0,0.5],[1,0.5]];portConstraint=eastwest;" parent="MtVjQjLznADQQLDuYncj-23" vertex="1">
          <mxGeometry y="111" width="197" height="26" as="geometry" />
        </mxCell>
        <mxCell id="cFZcCsAZOapWqEomhNYO-0" value="" style="endArrow=block;dashed=1;endFill=0;endSize=12;html=1;rounded=0;" parent="WIyWlLk6GJQsqaUBKTNV-1" source="MtVjQjLznADQQLDuYncj-17" target="MtVjQjLznADQQLDuYncj-23" edge="1">
          <mxGeometry width="160" relative="1" as="geometry">
            <mxPoint x="122" y="479" as="sourcePoint" />
            <mxPoint x="584" y="220" as="targetPoint" />
            <Array as="points">
              <mxPoint x="629" y="273" />
            </Array>
          </mxGeometry>
        </mxCell>
        <mxCell id="cFZcCsAZOapWqEomhNYO-1" value="CommandConsultarLivro" style="swimlane;fontStyle=1;align=center;verticalAlign=top;childLayout=stackLayout;horizontal=1;startSize=48;horizontalStack=0;resizeParent=1;resizeLast=0;collapsible=1;marginBottom=0;rounded=0;shadow=0;strokeWidth=1;" parent="WIyWlLk6GJQsqaUBKTNV-1" vertex="1">
          <mxGeometry x="280" y="49" width="232" height="93" as="geometry">
            <mxRectangle x="30" y="360" width="160" height="26" as="alternateBounds" />
          </mxGeometry>
        </mxCell>
        <mxCell id="cFZcCsAZOapWqEomhNYO-2" value="" style="line;html=1;strokeWidth=1;align=left;verticalAlign=middle;spacingTop=-1;spacingLeft=3;spacingRight=3;rotatable=0;labelPosition=right;points=[];portConstraint=eastwest;" parent="cFZcCsAZOapWqEomhNYO-1" vertex="1">
          <mxGeometry y="48" width="232" height="8" as="geometry" />
        </mxCell>
        <mxCell id="cFZcCsAZOapWqEomhNYO-3" value="+ execute(String[] args): void" style="text;align=left;verticalAlign=top;spacingLeft=4;spacingRight=4;overflow=hidden;rotatable=0;points=[[0,0.5],[1,0.5]];portConstraint=eastwest;fontStyle=0" parent="cFZcCsAZOapWqEomhNYO-1" vertex="1">
          <mxGeometry y="56" width="232" height="26" as="geometry" />
        </mxCell>
        <mxCell id="cFZcCsAZOapWqEomhNYO-4" value="CommandConsultarNotificacoes" style="swimlane;fontStyle=1;align=center;verticalAlign=top;childLayout=stackLayout;horizontal=1;startSize=48;horizontalStack=0;resizeParent=1;resizeLast=0;collapsible=1;marginBottom=0;rounded=0;shadow=0;strokeWidth=1;" parent="WIyWlLk6GJQsqaUBKTNV-1" vertex="1">
          <mxGeometry x="29" y="49" width="232" height="110" as="geometry">
            <mxRectangle x="30" y="360" width="160" height="26" as="alternateBounds" />
          </mxGeometry>
        </mxCell>
        <mxCell id="cFZcCsAZOapWqEomhNYO-5" value="" style="line;html=1;strokeWidth=1;align=left;verticalAlign=middle;spacingTop=-1;spacingLeft=3;spacingRight=3;rotatable=0;labelPosition=right;points=[];portConstraint=eastwest;" parent="cFZcCsAZOapWqEomhNYO-4" vertex="1">
          <mxGeometry y="48" width="232" height="8" as="geometry" />
        </mxCell>
        <mxCell id="cFZcCsAZOapWqEomhNYO-6" value="+ execute(String[] args): void" style="text;align=left;verticalAlign=top;spacingLeft=4;spacingRight=4;overflow=hidden;rotatable=0;points=[[0,0.5],[1,0.5]];portConstraint=eastwest;fontStyle=0" parent="cFZcCsAZOapWqEomhNYO-4" vertex="1">
          <mxGeometry y="56" width="232" height="26" as="geometry" />
        </mxCell>
        <mxCell id="cFZcCsAZOapWqEomhNYO-7" value="CommandConsultarUsuario" style="swimlane;fontStyle=1;align=center;verticalAlign=top;childLayout=stackLayout;horizontal=1;startSize=48;horizontalStack=0;resizeParent=1;resizeLast=0;collapsible=1;marginBottom=0;rounded=0;shadow=0;strokeWidth=1;" parent="WIyWlLk6GJQsqaUBKTNV-1" vertex="1">
          <mxGeometry x="29" y="218" width="232" height="110" as="geometry">
            <mxRectangle x="30" y="360" width="160" height="26" as="alternateBounds" />
          </mxGeometry>
        </mxCell>
        <mxCell id="cFZcCsAZOapWqEomhNYO-8" value="" style="line;html=1;strokeWidth=1;align=left;verticalAlign=middle;spacingTop=-1;spacingLeft=3;spacingRight=3;rotatable=0;labelPosition=right;points=[];portConstraint=eastwest;" parent="cFZcCsAZOapWqEomhNYO-7" vertex="1">
          <mxGeometry y="48" width="232" height="8" as="geometry" />
        </mxCell>
        <mxCell id="cFZcCsAZOapWqEomhNYO-9" value="+ execute(String[] args): void" style="text;align=left;verticalAlign=top;spacingLeft=4;spacingRight=4;overflow=hidden;rotatable=0;points=[[0,0.5],[1,0.5]];portConstraint=eastwest;fontStyle=0" parent="cFZcCsAZOapWqEomhNYO-7" vertex="1">
          <mxGeometry y="56" width="232" height="26" as="geometry" />
        </mxCell>
        <mxCell id="cFZcCsAZOapWqEomhNYO-10" value="CommandRealizarDevolucao" style="swimlane;fontStyle=1;align=center;verticalAlign=top;childLayout=stackLayout;horizontal=1;startSize=48;horizontalStack=0;resizeParent=1;resizeLast=0;collapsible=1;marginBottom=0;rounded=0;shadow=0;strokeWidth=1;" parent="WIyWlLk6GJQsqaUBKTNV-1" vertex="1">
          <mxGeometry x="29" y="355" width="232" height="110" as="geometry">
            <mxRectangle x="30" y="360" width="160" height="26" as="alternateBounds" />
          </mxGeometry>
        </mxCell>
        <mxCell id="cFZcCsAZOapWqEomhNYO-11" value="" style="line;html=1;strokeWidth=1;align=left;verticalAlign=middle;spacingTop=-1;spacingLeft=3;spacingRight=3;rotatable=0;labelPosition=right;points=[];portConstraint=eastwest;" parent="cFZcCsAZOapWqEomhNYO-10" vertex="1">
          <mxGeometry y="48" width="232" height="8" as="geometry" />
        </mxCell>
        <mxCell id="cFZcCsAZOapWqEomhNYO-12" value="+ execute(String[] args): void" style="text;align=left;verticalAlign=top;spacingLeft=4;spacingRight=4;overflow=hidden;rotatable=0;points=[[0,0.5],[1,0.5]];portConstraint=eastwest;fontStyle=0" parent="cFZcCsAZOapWqEomhNYO-10" vertex="1">
          <mxGeometry y="56" width="232" height="26" as="geometry" />
        </mxCell>
        <mxCell id="cFZcCsAZOapWqEomhNYO-13" value="CommandRealizarEmprestimo" style="swimlane;fontStyle=1;align=center;verticalAlign=top;childLayout=stackLayout;horizontal=1;startSize=48;horizontalStack=0;resizeParent=1;resizeLast=0;collapsible=1;marginBottom=0;rounded=0;shadow=0;strokeWidth=1;" parent="WIyWlLk6GJQsqaUBKTNV-1" vertex="1">
          <mxGeometry x="29" y="487" width="232" height="110" as="geometry">
            <mxRectangle x="30" y="360" width="160" height="26" as="alternateBounds" />
          </mxGeometry>
        </mxCell>
        <mxCell id="cFZcCsAZOapWqEomhNYO-14" value="" style="line;html=1;strokeWidth=1;align=left;verticalAlign=middle;spacingTop=-1;spacingLeft=3;spacingRight=3;rotatable=0;labelPosition=right;points=[];portConstraint=eastwest;" parent="cFZcCsAZOapWqEomhNYO-13" vertex="1">
          <mxGeometry y="48" width="232" height="8" as="geometry" />
        </mxCell>
        <mxCell id="cFZcCsAZOapWqEomhNYO-15" value="+ execute(String[] args): void" style="text;align=left;verticalAlign=top;spacingLeft=4;spacingRight=4;overflow=hidden;rotatable=0;points=[[0,0.5],[1,0.5]];portConstraint=eastwest;fontStyle=0" parent="cFZcCsAZOapWqEomhNYO-13" vertex="1">
          <mxGeometry y="56" width="232" height="26" as="geometry" />
        </mxCell>
        <mxCell id="cFZcCsAZOapWqEomhNYO-16" value="CommandRealizarReserva" style="swimlane;fontStyle=1;align=center;verticalAlign=top;childLayout=stackLayout;horizontal=1;startSize=48;horizontalStack=0;resizeParent=1;resizeLast=0;collapsible=1;marginBottom=0;rounded=0;shadow=0;strokeWidth=1;" parent="WIyWlLk6GJQsqaUBKTNV-1" vertex="1">
          <mxGeometry x="29" y="612" width="232" height="110" as="geometry">
            <mxRectangle x="30" y="360" width="160" height="26" as="alternateBounds" />
          </mxGeometry>
        </mxCell>
        <mxCell id="cFZcCsAZOapWqEomhNYO-17" value="" style="line;html=1;strokeWidth=1;align=left;verticalAlign=middle;spacingTop=-1;spacingLeft=3;spacingRight=3;rotatable=0;labelPosition=right;points=[];portConstraint=eastwest;" parent="cFZcCsAZOapWqEomhNYO-16" vertex="1">
          <mxGeometry y="48" width="232" height="8" as="geometry" />
        </mxCell>
        <mxCell id="cFZcCsAZOapWqEomhNYO-18" value="+ execute(String[] args): void" style="text;align=left;verticalAlign=top;spacingLeft=4;spacingRight=4;overflow=hidden;rotatable=0;points=[[0,0.5],[1,0.5]];portConstraint=eastwest;fontStyle=0" parent="cFZcCsAZOapWqEomhNYO-16" vertex="1">
          <mxGeometry y="56" width="232" height="26" as="geometry" />
        </mxCell>
        <mxCell id="cFZcCsAZOapWqEomhNYO-19" value="CommandSair" style="swimlane;fontStyle=1;align=center;verticalAlign=top;childLayout=stackLayout;horizontal=1;startSize=48;horizontalStack=0;resizeParent=1;resizeLast=0;collapsible=1;marginBottom=0;rounded=0;shadow=0;strokeWidth=1;" parent="WIyWlLk6GJQsqaUBKTNV-1" vertex="1">
          <mxGeometry x="29" y="748" width="232" height="110" as="geometry">
            <mxRectangle x="30" y="360" width="160" height="26" as="alternateBounds" />
          </mxGeometry>
        </mxCell>
        <mxCell id="cFZcCsAZOapWqEomhNYO-20" value="" style="line;html=1;strokeWidth=1;align=left;verticalAlign=middle;spacingTop=-1;spacingLeft=3;spacingRight=3;rotatable=0;labelPosition=right;points=[];portConstraint=eastwest;" parent="cFZcCsAZOapWqEomhNYO-19" vertex="1">
          <mxGeometry y="48" width="232" height="8" as="geometry" />
        </mxCell>
        <mxCell id="cFZcCsAZOapWqEomhNYO-21" value="+ execute(String[] args): void" style="text;align=left;verticalAlign=top;spacingLeft=4;spacingRight=4;overflow=hidden;rotatable=0;points=[[0,0.5],[1,0.5]];portConstraint=eastwest;fontStyle=0" parent="cFZcCsAZOapWqEomhNYO-19" vertex="1">
          <mxGeometry y="56" width="232" height="26" as="geometry" />
        </mxCell>
        <mxCell id="cFZcCsAZOapWqEomhNYO-22" value="" style="endArrow=block;dashed=1;endFill=0;endSize=12;html=1;rounded=0;" parent="WIyWlLk6GJQsqaUBKTNV-1" source="cFZcCsAZOapWqEomhNYO-1" target="MtVjQjLznADQQLDuYncj-23" edge="1">
          <mxGeometry width="160" relative="1" as="geometry">
            <mxPoint x="484" y="304" as="sourcePoint" />
            <mxPoint x="478" y="207" as="targetPoint" />
          </mxGeometry>
        </mxCell>
        <mxCell id="cFZcCsAZOapWqEomhNYO-23" value="" style="endArrow=block;dashed=1;endFill=0;endSize=12;html=1;rounded=0;" parent="WIyWlLk6GJQsqaUBKTNV-1" source="cFZcCsAZOapWqEomhNYO-4" target="MtVjQjLznADQQLDuYncj-23" edge="1">
          <mxGeometry width="160" relative="1" as="geometry">
            <mxPoint x="385" y="304" as="sourcePoint" />
            <mxPoint x="306" y="215" as="targetPoint" />
            <Array as="points">
              <mxPoint x="294" y="222" />
            </Array>
          </mxGeometry>
        </mxCell>
        <mxCell id="cFZcCsAZOapWqEomhNYO-24" value="" style="endArrow=block;dashed=1;endFill=0;endSize=12;html=1;rounded=0;" parent="WIyWlLk6GJQsqaUBKTNV-1" source="cFZcCsAZOapWqEomhNYO-7" target="MtVjQjLznADQQLDuYncj-23" edge="1">
          <mxGeometry width="160" relative="1" as="geometry">
            <mxPoint x="313" y="268" as="sourcePoint" />
            <mxPoint x="178" y="348" as="targetPoint" />
          </mxGeometry>
        </mxCell>
        <mxCell id="cFZcCsAZOapWqEomhNYO-25" value="" style="endArrow=block;dashed=1;endFill=0;endSize=12;html=1;rounded=0;" parent="WIyWlLk6GJQsqaUBKTNV-1" source="cFZcCsAZOapWqEomhNYO-10" target="MtVjQjLznADQQLDuYncj-23" edge="1">
          <mxGeometry width="160" relative="1" as="geometry">
            <mxPoint x="311" y="456" as="sourcePoint" />
            <mxPoint x="258" y="431" as="targetPoint" />
          </mxGeometry>
        </mxCell>
        <mxCell id="cFZcCsAZOapWqEomhNYO-26" value="" style="endArrow=block;dashed=1;endFill=0;endSize=12;html=1;rounded=0;" parent="WIyWlLk6GJQsqaUBKTNV-1" source="cFZcCsAZOapWqEomhNYO-13" target="MtVjQjLznADQQLDuYncj-23" edge="1">
          <mxGeometry width="160" relative="1" as="geometry">
            <mxPoint x="311" y="459" as="sourcePoint" />
            <mxPoint x="176" y="580" as="targetPoint" />
            <Array as="points">
              <mxPoint x="309" y="542" />
            </Array>
          </mxGeometry>
        </mxCell>
        <mxCell id="cFZcCsAZOapWqEomhNYO-27" value="" style="endArrow=block;dashed=1;endFill=0;endSize=12;html=1;rounded=0;" parent="WIyWlLk6GJQsqaUBKTNV-1" source="cFZcCsAZOapWqEomhNYO-16" target="MtVjQjLznADQQLDuYncj-23" edge="1">
          <mxGeometry width="160" relative="1" as="geometry">
            <mxPoint x="381" y="442" as="sourcePoint" />
            <mxPoint x="314" y="574" as="targetPoint" />
            <Array as="points">
              <mxPoint x="311" y="667" />
            </Array>
          </mxGeometry>
        </mxCell>
        <mxCell id="cFZcCsAZOapWqEomhNYO-28" value="" style="endArrow=block;dashed=1;endFill=0;endSize=12;html=1;rounded=0;" parent="WIyWlLk6GJQsqaUBKTNV-1" source="cFZcCsAZOapWqEomhNYO-19" target="MtVjQjLznADQQLDuYncj-23" edge="1">
          <mxGeometry width="160" relative="1" as="geometry">
            <mxPoint x="401" y="535" as="sourcePoint" />
            <mxPoint x="417" y="750" as="targetPoint" />
            <Array as="points">
              <mxPoint x="300" y="800" />
            </Array>
          </mxGeometry>
        </mxCell>
        <mxCell id="fqb2mtGp8k7TycbTAKJE-2" value="&lt;&lt;Interface&gt;&gt;&#xa;IUsuario" style="swimlane;fontStyle=1;align=center;verticalAlign=top;childLayout=stackLayout;horizontal=1;startSize=48;horizontalStack=0;resizeParent=1;resizeLast=0;collapsible=1;marginBottom=0;rounded=0;shadow=0;strokeWidth=1;" vertex="1" parent="WIyWlLk6GJQsqaUBKTNV-1">
          <mxGeometry x="1329" y="382" width="255" height="264" as="geometry">
            <mxRectangle x="30" y="360" width="160" height="26" as="alternateBounds" />
          </mxGeometry>
        </mxCell>
        <mxCell id="fqb2mtGp8k7TycbTAKJE-3" value="" style="line;html=1;strokeWidth=1;align=left;verticalAlign=middle;spacingTop=-1;spacingLeft=3;spacingRight=3;rotatable=0;labelPosition=right;points=[];portConstraint=eastwest;" vertex="1" parent="fqb2mtGp8k7TycbTAKJE-2">
          <mxGeometry y="48" width="255" height="8" as="geometry" />
        </mxCell>
        <mxCell id="fqb2mtGp8k7TycbTAKJE-4" value="+ emprestimoLivro(String): void" style="text;align=left;verticalAlign=top;spacingLeft=4;spacingRight=4;overflow=hidden;rotatable=0;points=[[0,0.5],[1,0.5]];portConstraint=eastwest;fontStyle=0" vertex="1" parent="fqb2mtGp8k7TycbTAKJE-2">
          <mxGeometry y="56" width="255" height="26" as="geometry" />
        </mxCell>
        <mxCell id="fqb2mtGp8k7TycbTAKJE-6" value="+ reservarLivro(String): void" style="text;align=left;verticalAlign=top;spacingLeft=4;spacingRight=4;overflow=hidden;rotatable=0;points=[[0,0.5],[1,0.5]];portConstraint=eastwest;fontStyle=0" vertex="1" parent="fqb2mtGp8k7TycbTAKJE-2">
          <mxGeometry y="82" width="255" height="26" as="geometry" />
        </mxCell>
        <mxCell id="fqb2mtGp8k7TycbTAKJE-7" value="+ devolverLivro(String): void" style="text;align=left;verticalAlign=top;spacingLeft=4;spacingRight=4;overflow=hidden;rotatable=0;points=[[0,0.5],[1,0.5]];portConstraint=eastwest;fontStyle=0" vertex="1" parent="fqb2mtGp8k7TycbTAKJE-2">
          <mxGeometry y="108" width="255" height="26" as="geometry" />
        </mxCell>
        <mxCell id="fqb2mtGp8k7TycbTAKJE-8" value="+ removerReservaAtual(Livro): void" style="text;align=left;verticalAlign=top;spacingLeft=4;spacingRight=4;overflow=hidden;rotatable=0;points=[[0,0.5],[1,0.5]];portConstraint=eastwest;fontStyle=0" vertex="1" parent="fqb2mtGp8k7TycbTAKJE-2">
          <mxGeometry y="134" width="255" height="26" as="geometry" />
        </mxCell>
        <mxCell id="fqb2mtGp8k7TycbTAKJE-9" value="+ adicionarReservaHistorico(Reserva): void" style="text;align=left;verticalAlign=top;spacingLeft=4;spacingRight=4;overflow=hidden;rotatable=0;points=[[0,0.5],[1,0.5]];portConstraint=eastwest;fontStyle=0" vertex="1" parent="fqb2mtGp8k7TycbTAKJE-2">
          <mxGeometry y="160" width="255" height="26" as="geometry" />
        </mxCell>
        <mxCell id="fqb2mtGp8k7TycbTAKJE-10" value="+ getNome(): String" style="text;align=left;verticalAlign=top;spacingLeft=4;spacingRight=4;overflow=hidden;rotatable=0;points=[[0,0.5],[1,0.5]];portConstraint=eastwest;fontStyle=0" vertex="1" parent="fqb2mtGp8k7TycbTAKJE-2">
          <mxGeometry y="186" width="255" height="26" as="geometry" />
        </mxCell>
        <mxCell id="fqb2mtGp8k7TycbTAKJE-11" value="+ getCodigo(): String" style="text;align=left;verticalAlign=top;spacingLeft=4;spacingRight=4;overflow=hidden;rotatable=0;points=[[0,0.5],[1,0.5]];portConstraint=eastwest;fontStyle=0" vertex="1" parent="fqb2mtGp8k7TycbTAKJE-2">
          <mxGeometry y="212" width="255" height="26" as="geometry" />
        </mxCell>
        <mxCell id="fqb2mtGp8k7TycbTAKJE-12" value="+ exibir(): String" style="text;align=left;verticalAlign=top;spacingLeft=4;spacingRight=4;overflow=hidden;rotatable=0;points=[[0,0.5],[1,0.5]];portConstraint=eastwest;fontStyle=0" vertex="1" parent="fqb2mtGp8k7TycbTAKJE-2">
          <mxGeometry y="238" width="255" height="26" as="geometry" />
        </mxCell>
        <mxCell id="fqb2mtGp8k7TycbTAKJE-14" value="&lt;&lt;Singleton&gt;&gt;&#xa;&lt;&lt;Fachada&gt;&gt;&#xa;SistemaBiblioteca" style="swimlane;fontStyle=3;align=center;verticalAlign=top;childLayout=stackLayout;horizontal=1;startSize=51;horizontalStack=0;resizeParent=1;resizeLast=0;collapsible=1;marginBottom=0;rounded=0;shadow=0;strokeWidth=1;" vertex="1" parent="WIyWlLk6GJQsqaUBKTNV-1">
          <mxGeometry x="270" y="890" width="307" height="449" as="geometry">
            <mxRectangle x="30" y="360" width="160" height="26" as="alternateBounds" />
          </mxGeometry>
        </mxCell>
        <mxCell id="fqb2mtGp8k7TycbTAKJE-15" value="- listaUsuarios: List&lt;IUsuario&gt;" style="text;align=left;verticalAlign=top;spacingLeft=4;spacingRight=4;overflow=hidden;rotatable=0;points=[[0,0.5],[1,0.5]];portConstraint=eastwest;" vertex="1" parent="fqb2mtGp8k7TycbTAKJE-14">
          <mxGeometry y="51" width="307" height="26" as="geometry" />
        </mxCell>
        <mxCell id="fqb2mtGp8k7TycbTAKJE-177" value="- listaLivros: List&lt;Livro&gt;" style="text;align=left;verticalAlign=top;spacingLeft=4;spacingRight=4;overflow=hidden;rotatable=0;points=[[0,0.5],[1,0.5]];portConstraint=eastwest;" vertex="1" parent="fqb2mtGp8k7TycbTAKJE-14">
          <mxGeometry y="77" width="307" height="26" as="geometry" />
        </mxCell>
        <mxCell id="fqb2mtGp8k7TycbTAKJE-178" value="- instanciaBiblioteca: SistemaBiblioteca" style="text;align=left;verticalAlign=top;spacingLeft=4;spacingRight=4;overflow=hidden;rotatable=0;points=[[0,0.5],[1,0.5]];portConstraint=eastwest;" vertex="1" parent="fqb2mtGp8k7TycbTAKJE-14">
          <mxGeometry y="103" width="307" height="26" as="geometry" />
        </mxCell>
        <mxCell id="fqb2mtGp8k7TycbTAKJE-179" value="- commands: Map&lt;String, Command&gt;" style="text;align=left;verticalAlign=top;spacingLeft=4;spacingRight=4;overflow=hidden;rotatable=0;points=[[0,0.5],[1,0.5]];portConstraint=eastwest;" vertex="1" parent="fqb2mtGp8k7TycbTAKJE-14">
          <mxGeometry y="129" width="307" height="26" as="geometry" />
        </mxCell>
        <mxCell id="fqb2mtGp8k7TycbTAKJE-16" value="" style="line;html=1;strokeWidth=1;align=left;verticalAlign=middle;spacingTop=-1;spacingLeft=3;spacingRight=3;rotatable=0;labelPosition=right;points=[];portConstraint=eastwest;" vertex="1" parent="fqb2mtGp8k7TycbTAKJE-14">
          <mxGeometry y="155" width="307" height="8" as="geometry" />
        </mxCell>
        <mxCell id="fqb2mtGp8k7TycbTAKJE-17" value="+ getInstanciaSistemaBiblioteca(): SistemaBiblioteca" style="text;align=left;verticalAlign=top;spacingLeft=4;spacingRight=4;overflow=hidden;rotatable=0;points=[[0,0.5],[1,0.5]];portConstraint=eastwest;fontStyle=0" vertex="1" parent="fqb2mtGp8k7TycbTAKJE-14">
          <mxGeometry y="163" width="307" height="26" as="geometry" />
        </mxCell>
        <mxCell id="fqb2mtGp8k7TycbTAKJE-176" value="+ run(String[]): void" style="text;align=left;verticalAlign=top;spacingLeft=4;spacingRight=4;overflow=hidden;rotatable=0;points=[[0,0.5],[1,0.5]];portConstraint=eastwest;fontStyle=0" vertex="1" parent="fqb2mtGp8k7TycbTAKJE-14">
          <mxGeometry y="189" width="307" height="26" as="geometry" />
        </mxCell>
        <mxCell id="fqb2mtGp8k7TycbTAKJE-18" value="+ realizarEmprestimoLivro(String, String): void" style="text;align=left;verticalAlign=top;spacingLeft=4;spacingRight=4;overflow=hidden;rotatable=0;points=[[0,0.5],[1,0.5]];portConstraint=eastwest;" vertex="1" parent="fqb2mtGp8k7TycbTAKJE-14">
          <mxGeometry y="215" width="307" height="26" as="geometry" />
        </mxCell>
        <mxCell id="fqb2mtGp8k7TycbTAKJE-189" value="+ realizarReservaLivro(String, String): void" style="text;align=left;verticalAlign=top;spacingLeft=4;spacingRight=4;overflow=hidden;rotatable=0;points=[[0,0.5],[1,0.5]];portConstraint=eastwest;" vertex="1" parent="fqb2mtGp8k7TycbTAKJE-14">
          <mxGeometry y="241" width="307" height="26" as="geometry" />
        </mxCell>
        <mxCell id="fqb2mtGp8k7TycbTAKJE-190" value="+ realizarDevolucaoLivro(String, String): void" style="text;align=left;verticalAlign=top;spacingLeft=4;spacingRight=4;overflow=hidden;rotatable=0;points=[[0,0.5],[1,0.5]];portConstraint=eastwest;" vertex="1" parent="fqb2mtGp8k7TycbTAKJE-14">
          <mxGeometry y="267" width="307" height="26" as="geometry" />
        </mxCell>
        <mxCell id="fqb2mtGp8k7TycbTAKJE-191" value="- obterUsuario(String): IUsuario" style="text;align=left;verticalAlign=top;spacingLeft=4;spacingRight=4;overflow=hidden;rotatable=0;points=[[0,0.5],[1,0.5]];portConstraint=eastwest;" vertex="1" parent="fqb2mtGp8k7TycbTAKJE-14">
          <mxGeometry y="293" width="307" height="26" as="geometry" />
        </mxCell>
        <mxCell id="fqb2mtGp8k7TycbTAKJE-193" value="+ consultarNotificacoes(String): void" style="text;align=left;verticalAlign=top;spacingLeft=4;spacingRight=4;overflow=hidden;rotatable=0;points=[[0,0.5],[1,0.5]];portConstraint=eastwest;" vertex="1" parent="fqb2mtGp8k7TycbTAKJE-14">
          <mxGeometry y="319" width="307" height="26" as="geometry" />
        </mxCell>
        <mxCell id="fqb2mtGp8k7TycbTAKJE-194" value="+ adicionarObservador(String, String): void" style="text;align=left;verticalAlign=top;spacingLeft=4;spacingRight=4;overflow=hidden;rotatable=0;points=[[0,0.5],[1,0.5]];portConstraint=eastwest;" vertex="1" parent="fqb2mtGp8k7TycbTAKJE-14">
          <mxGeometry y="345" width="307" height="26" as="geometry" />
        </mxCell>
        <mxCell id="fqb2mtGp8k7TycbTAKJE-195" value="+ consultarUsuarioPeloCodigo(String): void" style="text;align=left;verticalAlign=top;spacingLeft=4;spacingRight=4;overflow=hidden;rotatable=0;points=[[0,0.5],[1,0.5]];portConstraint=eastwest;" vertex="1" parent="fqb2mtGp8k7TycbTAKJE-14">
          <mxGeometry y="371" width="307" height="26" as="geometry" />
        </mxCell>
        <mxCell id="fqb2mtGp8k7TycbTAKJE-196" value="+ consultarLivroPeloCodigo(String): void" style="text;align=left;verticalAlign=top;spacingLeft=4;spacingRight=4;overflow=hidden;rotatable=0;points=[[0,0.5],[1,0.5]];portConstraint=eastwest;" vertex="1" parent="fqb2mtGp8k7TycbTAKJE-14">
          <mxGeometry y="397" width="307" height="26" as="geometry" />
        </mxCell>
        <mxCell id="fqb2mtGp8k7TycbTAKJE-197" value="+ sairAplicacao(): void" style="text;align=left;verticalAlign=top;spacingLeft=4;spacingRight=4;overflow=hidden;rotatable=0;points=[[0,0.5],[1,0.5]];portConstraint=eastwest;" vertex="1" parent="fqb2mtGp8k7TycbTAKJE-14">
          <mxGeometry y="423" width="307" height="26" as="geometry" />
        </mxCell>
        <mxCell id="fqb2mtGp8k7TycbTAKJE-41" value="AlunoPosGraduacao" style="swimlane;fontStyle=1;align=center;verticalAlign=top;childLayout=stackLayout;horizontal=1;startSize=26;horizontalStack=0;resizeParent=1;resizeLast=0;collapsible=1;marginBottom=0;rounded=0;shadow=0;strokeWidth=1;" vertex="1" parent="WIyWlLk6GJQsqaUBKTNV-1">
          <mxGeometry x="1941.6" y="50" width="260" height="632" as="geometry">
            <mxRectangle x="30" y="360" width="160" height="26" as="alternateBounds" />
          </mxGeometry>
        </mxCell>
        <mxCell id="fqb2mtGp8k7TycbTAKJE-42" value="- nome: String" style="text;align=left;verticalAlign=top;spacingLeft=4;spacingRight=4;overflow=hidden;rotatable=0;points=[[0,0.5],[1,0.5]];portConstraint=eastwest;rounded=0;shadow=0;html=0;" vertex="1" parent="fqb2mtGp8k7TycbTAKJE-41">
          <mxGeometry y="26" width="260" height="26" as="geometry" />
        </mxCell>
        <mxCell id="fqb2mtGp8k7TycbTAKJE-43" value="- codigo: String" style="text;align=left;verticalAlign=top;spacingLeft=4;spacingRight=4;overflow=hidden;rotatable=0;points=[[0,0.5],[1,0.5]];portConstraint=eastwest;rounded=0;shadow=0;html=0;" vertex="1" parent="fqb2mtGp8k7TycbTAKJE-41">
          <mxGeometry y="52" width="260" height="26" as="geometry" />
        </mxCell>
        <mxCell id="fqb2mtGp8k7TycbTAKJE-44" value="- limiteEmprestimos: int = 4" style="text;align=left;verticalAlign=top;spacingLeft=4;spacingRight=4;overflow=hidden;rotatable=0;points=[[0,0.5],[1,0.5]];portConstraint=eastwest;rounded=0;shadow=0;html=0;" vertex="1" parent="fqb2mtGp8k7TycbTAKJE-41">
          <mxGeometry y="78" width="260" height="26" as="geometry" />
        </mxCell>
        <mxCell id="fqb2mtGp8k7TycbTAKJE-45" value="- limiteReservas: int = 3" style="text;align=left;verticalAlign=top;spacingLeft=4;spacingRight=4;overflow=hidden;rotatable=0;points=[[0,0.5],[1,0.5]];portConstraint=eastwest;rounded=0;shadow=0;html=0;" vertex="1" parent="fqb2mtGp8k7TycbTAKJE-41">
          <mxGeometry y="104" width="260" height="26" as="geometry" />
        </mxCell>
        <mxCell id="fqb2mtGp8k7TycbTAKJE-46" value="- devolucao: int = 4" style="text;align=left;verticalAlign=top;spacingLeft=4;spacingRight=4;overflow=hidden;rotatable=0;points=[[0,0.5],[1,0.5]];portConstraint=eastwest;rounded=0;shadow=0;html=0;" vertex="1" parent="fqb2mtGp8k7TycbTAKJE-41">
          <mxGeometry y="130" width="260" height="26" as="geometry" />
        </mxCell>
        <mxCell id="fqb2mtGp8k7TycbTAKJE-47" value="- historicoReservas: List&lt;Reserva&gt;" style="text;align=left;verticalAlign=top;spacingLeft=4;spacingRight=4;overflow=hidden;rotatable=0;points=[[0,0.5],[1,0.5]];portConstraint=eastwest;rounded=0;shadow=0;html=0;" vertex="1" parent="fqb2mtGp8k7TycbTAKJE-41">
          <mxGeometry y="156" width="260" height="26" as="geometry" />
        </mxCell>
        <mxCell id="fqb2mtGp8k7TycbTAKJE-48" value="- reservasAtuais: List&lt;Reserva&gt;" style="text;align=left;verticalAlign=top;spacingLeft=4;spacingRight=4;overflow=hidden;rotatable=0;points=[[0,0.5],[1,0.5]];portConstraint=eastwest;rounded=0;shadow=0;html=0;" vertex="1" parent="fqb2mtGp8k7TycbTAKJE-41">
          <mxGeometry y="182" width="260" height="26" as="geometry" />
        </mxCell>
        <mxCell id="fqb2mtGp8k7TycbTAKJE-49" value="- emprestimos: List&lt;Emprestimo&gt;" style="text;align=left;verticalAlign=top;spacingLeft=4;spacingRight=4;overflow=hidden;rotatable=0;points=[[0,0.5],[1,0.5]];portConstraint=eastwest;rounded=0;shadow=0;html=0;" vertex="1" parent="fqb2mtGp8k7TycbTAKJE-41">
          <mxGeometry y="208" width="260" height="26" as="geometry" />
        </mxCell>
        <mxCell id="fqb2mtGp8k7TycbTAKJE-50" value="- emprestimosAtuais: List&lt;Emprestimo&gt;" style="text;align=left;verticalAlign=top;spacingLeft=4;spacingRight=4;overflow=hidden;rotatable=0;points=[[0,0.5],[1,0.5]];portConstraint=eastwest;rounded=0;shadow=0;html=0;" vertex="1" parent="fqb2mtGp8k7TycbTAKJE-41">
          <mxGeometry y="234" width="260" height="26" as="geometry" />
        </mxCell>
        <mxCell id="fqb2mtGp8k7TycbTAKJE-51" value="" style="line;html=1;strokeWidth=1;align=left;verticalAlign=middle;spacingTop=-1;spacingLeft=3;spacingRight=3;rotatable=0;labelPosition=right;points=[];portConstraint=eastwest;" vertex="1" parent="fqb2mtGp8k7TycbTAKJE-41">
          <mxGeometry y="260" width="260" height="8" as="geometry" />
        </mxCell>
        <mxCell id="fqb2mtGp8k7TycbTAKJE-52" value="+ emprestimoLivro(String): void" style="text;align=left;verticalAlign=top;spacingLeft=4;spacingRight=4;overflow=hidden;rotatable=0;points=[[0,0.5],[1,0.5]];portConstraint=eastwest;fontStyle=0" vertex="1" parent="fqb2mtGp8k7TycbTAKJE-41">
          <mxGeometry y="268" width="260" height="26" as="geometry" />
        </mxCell>
        <mxCell id="fqb2mtGp8k7TycbTAKJE-57" value="+ reservarLivro(String): void" style="text;align=left;verticalAlign=top;spacingLeft=4;spacingRight=4;overflow=hidden;rotatable=0;points=[[0,0.5],[1,0.5]];portConstraint=eastwest;fontStyle=0" vertex="1" parent="fqb2mtGp8k7TycbTAKJE-41">
          <mxGeometry y="294" width="260" height="26" as="geometry" />
        </mxCell>
        <mxCell id="fqb2mtGp8k7TycbTAKJE-56" value="+ devolverLivro(String): void" style="text;align=left;verticalAlign=top;spacingLeft=4;spacingRight=4;overflow=hidden;rotatable=0;points=[[0,0.5],[1,0.5]];portConstraint=eastwest;fontStyle=0" vertex="1" parent="fqb2mtGp8k7TycbTAKJE-41">
          <mxGeometry y="320" width="260" height="26" as="geometry" />
        </mxCell>
        <mxCell id="fqb2mtGp8k7TycbTAKJE-55" value="+ removerReservaAtual(Livro): void" style="text;align=left;verticalAlign=top;spacingLeft=4;spacingRight=4;overflow=hidden;rotatable=0;points=[[0,0.5],[1,0.5]];portConstraint=eastwest;fontStyle=0" vertex="1" parent="fqb2mtGp8k7TycbTAKJE-41">
          <mxGeometry y="346" width="260" height="26" as="geometry" />
        </mxCell>
        <mxCell id="fqb2mtGp8k7TycbTAKJE-54" value="+ adicionarReservaHistorico(Reserva): void" style="text;align=left;verticalAlign=top;spacingLeft=4;spacingRight=4;overflow=hidden;rotatable=0;points=[[0,0.5],[1,0.5]];portConstraint=eastwest;fontStyle=0" vertex="1" parent="fqb2mtGp8k7TycbTAKJE-41">
          <mxGeometry y="372" width="260" height="26" as="geometry" />
        </mxCell>
        <mxCell id="fqb2mtGp8k7TycbTAKJE-58" value="- adicionarEmprestimo(Livro): void" style="text;align=left;verticalAlign=top;spacingLeft=4;spacingRight=4;overflow=hidden;rotatable=0;points=[[0,0.5],[1,0.5]];portConstraint=eastwest;fontStyle=0" vertex="1" parent="fqb2mtGp8k7TycbTAKJE-41">
          <mxGeometry y="398" width="260" height="26" as="geometry" />
        </mxCell>
        <mxCell id="fqb2mtGp8k7TycbTAKJE-59" value="- adicionarReserva(Livro): void" style="text;align=left;verticalAlign=top;spacingLeft=4;spacingRight=4;overflow=hidden;rotatable=0;points=[[0,0.5],[1,0.5]];portConstraint=eastwest;fontStyle=0" vertex="1" parent="fqb2mtGp8k7TycbTAKJE-41">
          <mxGeometry y="424" width="260" height="26" as="geometry" />
        </mxCell>
        <mxCell id="fqb2mtGp8k7TycbTAKJE-60" value="- obterReserva(String): Reserva" style="text;align=left;verticalAlign=top;spacingLeft=4;spacingRight=4;overflow=hidden;rotatable=0;points=[[0,0.5],[1,0.5]];portConstraint=eastwest;fontStyle=0" vertex="1" parent="fqb2mtGp8k7TycbTAKJE-41">
          <mxGeometry y="450" width="260" height="26" as="geometry" />
        </mxCell>
        <mxCell id="fqb2mtGp8k7TycbTAKJE-61" value="- obterEmprestimoAtual(String): Emprestimo" style="text;align=left;verticalAlign=top;spacingLeft=4;spacingRight=4;overflow=hidden;rotatable=0;points=[[0,0.5],[1,0.5]];portConstraint=eastwest;fontStyle=0" vertex="1" parent="fqb2mtGp8k7TycbTAKJE-41">
          <mxGeometry y="476" width="260" height="26" as="geometry" />
        </mxCell>
        <mxCell id="fqb2mtGp8k7TycbTAKJE-62" value="- getLivrosDisponiveis(String): List&lt;Livro&gt;" style="text;align=left;verticalAlign=top;spacingLeft=4;spacingRight=4;overflow=hidden;rotatable=0;points=[[0,0.5],[1,0.5]];portConstraint=eastwest;fontStyle=0" vertex="1" parent="fqb2mtGp8k7TycbTAKJE-41">
          <mxGeometry y="502" width="260" height="26" as="geometry" />
        </mxCell>
        <mxCell id="fqb2mtGp8k7TycbTAKJE-63" value="- verificaDevedor(): boolean" style="text;align=left;verticalAlign=top;spacingLeft=4;spacingRight=4;overflow=hidden;rotatable=0;points=[[0,0.5],[1,0.5]];portConstraint=eastwest;fontStyle=0" vertex="1" parent="fqb2mtGp8k7TycbTAKJE-41">
          <mxGeometry y="528" width="260" height="26" as="geometry" />
        </mxCell>
        <mxCell id="fqb2mtGp8k7TycbTAKJE-121" value="+ getCodigo(): String" style="text;align=left;verticalAlign=top;spacingLeft=4;spacingRight=4;overflow=hidden;rotatable=0;points=[[0,0.5],[1,0.5]];portConstraint=eastwest;fontStyle=0" vertex="1" parent="fqb2mtGp8k7TycbTAKJE-41">
          <mxGeometry y="554" width="260" height="26" as="geometry" />
        </mxCell>
        <mxCell id="fqb2mtGp8k7TycbTAKJE-122" value="+ getNome(): String" style="text;align=left;verticalAlign=top;spacingLeft=4;spacingRight=4;overflow=hidden;rotatable=0;points=[[0,0.5],[1,0.5]];portConstraint=eastwest;fontStyle=0" vertex="1" parent="fqb2mtGp8k7TycbTAKJE-41">
          <mxGeometry y="580" width="260" height="26" as="geometry" />
        </mxCell>
        <mxCell id="fqb2mtGp8k7TycbTAKJE-53" value="+ exibir(): String" style="text;align=left;verticalAlign=top;spacingLeft=4;spacingRight=4;overflow=hidden;rotatable=0;points=[[0,0.5],[1,0.5]];portConstraint=eastwest;fontStyle=0" vertex="1" parent="fqb2mtGp8k7TycbTAKJE-41">
          <mxGeometry y="606" width="260" height="26" as="geometry" />
        </mxCell>
        <mxCell id="fqb2mtGp8k7TycbTAKJE-65" value="Professor" style="swimlane;fontStyle=1;align=center;verticalAlign=top;childLayout=stackLayout;horizontal=1;startSize=26;horizontalStack=0;resizeParent=1;resizeLast=0;collapsible=1;marginBottom=0;rounded=0;shadow=0;strokeWidth=1;" vertex="1" parent="WIyWlLk6GJQsqaUBKTNV-1">
          <mxGeometry x="1943.6" y="752" width="260" height="710" as="geometry">
            <mxRectangle x="30" y="360" width="160" height="26" as="alternateBounds" />
          </mxGeometry>
        </mxCell>
        <mxCell id="fqb2mtGp8k7TycbTAKJE-66" value="- nome: String" style="text;align=left;verticalAlign=top;spacingLeft=4;spacingRight=4;overflow=hidden;rotatable=0;points=[[0,0.5],[1,0.5]];portConstraint=eastwest;rounded=0;shadow=0;html=0;" vertex="1" parent="fqb2mtGp8k7TycbTAKJE-65">
          <mxGeometry y="26" width="260" height="26" as="geometry" />
        </mxCell>
        <mxCell id="fqb2mtGp8k7TycbTAKJE-67" value="- codigo: String" style="text;align=left;verticalAlign=top;spacingLeft=4;spacingRight=4;overflow=hidden;rotatable=0;points=[[0,0.5],[1,0.5]];portConstraint=eastwest;rounded=0;shadow=0;html=0;" vertex="1" parent="fqb2mtGp8k7TycbTAKJE-65">
          <mxGeometry y="52" width="260" height="26" as="geometry" />
        </mxCell>
        <mxCell id="fqb2mtGp8k7TycbTAKJE-69" value="- limiteReservas: int = 3" style="text;align=left;verticalAlign=top;spacingLeft=4;spacingRight=4;overflow=hidden;rotatable=0;points=[[0,0.5],[1,0.5]];portConstraint=eastwest;rounded=0;shadow=0;html=0;" vertex="1" parent="fqb2mtGp8k7TycbTAKJE-65">
          <mxGeometry y="78" width="260" height="26" as="geometry" />
        </mxCell>
        <mxCell id="fqb2mtGp8k7TycbTAKJE-70" value="- devolucao: int = 7" style="text;align=left;verticalAlign=top;spacingLeft=4;spacingRight=4;overflow=hidden;rotatable=0;points=[[0,0.5],[1,0.5]];portConstraint=eastwest;rounded=0;shadow=0;html=0;" vertex="1" parent="fqb2mtGp8k7TycbTAKJE-65">
          <mxGeometry y="104" width="260" height="26" as="geometry" />
        </mxCell>
        <mxCell id="fqb2mtGp8k7TycbTAKJE-71" value="- historicoReservas: List&lt;Reserva&gt;" style="text;align=left;verticalAlign=top;spacingLeft=4;spacingRight=4;overflow=hidden;rotatable=0;points=[[0,0.5],[1,0.5]];portConstraint=eastwest;rounded=0;shadow=0;html=0;" vertex="1" parent="fqb2mtGp8k7TycbTAKJE-65">
          <mxGeometry y="130" width="260" height="26" as="geometry" />
        </mxCell>
        <mxCell id="fqb2mtGp8k7TycbTAKJE-72" value="- reservasAtuais: List&lt;Reserva&gt;" style="text;align=left;verticalAlign=top;spacingLeft=4;spacingRight=4;overflow=hidden;rotatable=0;points=[[0,0.5],[1,0.5]];portConstraint=eastwest;rounded=0;shadow=0;html=0;" vertex="1" parent="fqb2mtGp8k7TycbTAKJE-65">
          <mxGeometry y="156" width="260" height="26" as="geometry" />
        </mxCell>
        <mxCell id="fqb2mtGp8k7TycbTAKJE-73" value="- emprestimos: List&lt;Emprestimo&gt;" style="text;align=left;verticalAlign=top;spacingLeft=4;spacingRight=4;overflow=hidden;rotatable=0;points=[[0,0.5],[1,0.5]];portConstraint=eastwest;rounded=0;shadow=0;html=0;" vertex="1" parent="fqb2mtGp8k7TycbTAKJE-65">
          <mxGeometry y="182" width="260" height="26" as="geometry" />
        </mxCell>
        <mxCell id="fqb2mtGp8k7TycbTAKJE-74" value="- emprestimosAtuais: List&lt;Emprestimo&gt;" style="text;align=left;verticalAlign=top;spacingLeft=4;spacingRight=4;overflow=hidden;rotatable=0;points=[[0,0.5],[1,0.5]];portConstraint=eastwest;rounded=0;shadow=0;html=0;" vertex="1" parent="fqb2mtGp8k7TycbTAKJE-65">
          <mxGeometry y="208" width="260" height="26" as="geometry" />
        </mxCell>
        <mxCell id="fqb2mtGp8k7TycbTAKJE-92" value="- quantidadeNotificacoes: int = 0" style="text;align=left;verticalAlign=top;spacingLeft=4;spacingRight=4;overflow=hidden;rotatable=0;points=[[0,0.5],[1,0.5]];portConstraint=eastwest;rounded=0;shadow=0;html=0;" vertex="1" parent="fqb2mtGp8k7TycbTAKJE-65">
          <mxGeometry y="234" width="260" height="26" as="geometry" />
        </mxCell>
        <mxCell id="fqb2mtGp8k7TycbTAKJE-75" value="" style="line;html=1;strokeWidth=1;align=left;verticalAlign=middle;spacingTop=-1;spacingLeft=3;spacingRight=3;rotatable=0;labelPosition=right;points=[];portConstraint=eastwest;" vertex="1" parent="fqb2mtGp8k7TycbTAKJE-65">
          <mxGeometry y="260" width="260" height="8" as="geometry" />
        </mxCell>
        <mxCell id="fqb2mtGp8k7TycbTAKJE-76" value="+ emprestimoLivro(String): void" style="text;align=left;verticalAlign=top;spacingLeft=4;spacingRight=4;overflow=hidden;rotatable=0;points=[[0,0.5],[1,0.5]];portConstraint=eastwest;fontStyle=0" vertex="1" parent="fqb2mtGp8k7TycbTAKJE-65">
          <mxGeometry y="268" width="260" height="26" as="geometry" />
        </mxCell>
        <mxCell id="fqb2mtGp8k7TycbTAKJE-81" value="+ reservarLivro(String): void" style="text;align=left;verticalAlign=top;spacingLeft=4;spacingRight=4;overflow=hidden;rotatable=0;points=[[0,0.5],[1,0.5]];portConstraint=eastwest;fontStyle=0" vertex="1" parent="fqb2mtGp8k7TycbTAKJE-65">
          <mxGeometry y="294" width="260" height="26" as="geometry" />
        </mxCell>
        <mxCell id="fqb2mtGp8k7TycbTAKJE-80" value="+ devolverLivro(String): void" style="text;align=left;verticalAlign=top;spacingLeft=4;spacingRight=4;overflow=hidden;rotatable=0;points=[[0,0.5],[1,0.5]];portConstraint=eastwest;fontStyle=0" vertex="1" parent="fqb2mtGp8k7TycbTAKJE-65">
          <mxGeometry y="320" width="260" height="26" as="geometry" />
        </mxCell>
        <mxCell id="fqb2mtGp8k7TycbTAKJE-79" value="+ removerReservaAtual(Livro): void" style="text;align=left;verticalAlign=top;spacingLeft=4;spacingRight=4;overflow=hidden;rotatable=0;points=[[0,0.5],[1,0.5]];portConstraint=eastwest;fontStyle=0" vertex="1" parent="fqb2mtGp8k7TycbTAKJE-65">
          <mxGeometry y="346" width="260" height="26" as="geometry" />
        </mxCell>
        <mxCell id="fqb2mtGp8k7TycbTAKJE-78" value="+ adicionarReservaHistorico(Reserva): void" style="text;align=left;verticalAlign=top;spacingLeft=4;spacingRight=4;overflow=hidden;rotatable=0;points=[[0,0.5],[1,0.5]];portConstraint=eastwest;fontStyle=0" vertex="1" parent="fqb2mtGp8k7TycbTAKJE-65">
          <mxGeometry y="372" width="260" height="26" as="geometry" />
        </mxCell>
        <mxCell id="fqb2mtGp8k7TycbTAKJE-82" value="- adicionarEmprestimo(Livro): void" style="text;align=left;verticalAlign=top;spacingLeft=4;spacingRight=4;overflow=hidden;rotatable=0;points=[[0,0.5],[1,0.5]];portConstraint=eastwest;fontStyle=0" vertex="1" parent="fqb2mtGp8k7TycbTAKJE-65">
          <mxGeometry y="398" width="260" height="26" as="geometry" />
        </mxCell>
        <mxCell id="fqb2mtGp8k7TycbTAKJE-83" value="- adicionarReserva(Livro): void" style="text;align=left;verticalAlign=top;spacingLeft=4;spacingRight=4;overflow=hidden;rotatable=0;points=[[0,0.5],[1,0.5]];portConstraint=eastwest;fontStyle=0" vertex="1" parent="fqb2mtGp8k7TycbTAKJE-65">
          <mxGeometry y="424" width="260" height="26" as="geometry" />
        </mxCell>
        <mxCell id="fqb2mtGp8k7TycbTAKJE-84" value="- obterReserva(String): Reserva" style="text;align=left;verticalAlign=top;spacingLeft=4;spacingRight=4;overflow=hidden;rotatable=0;points=[[0,0.5],[1,0.5]];portConstraint=eastwest;fontStyle=0" vertex="1" parent="fqb2mtGp8k7TycbTAKJE-65">
          <mxGeometry y="450" width="260" height="26" as="geometry" />
        </mxCell>
        <mxCell id="fqb2mtGp8k7TycbTAKJE-85" value="- obterEmprestimoAtual(String): Emprestimo" style="text;align=left;verticalAlign=top;spacingLeft=4;spacingRight=4;overflow=hidden;rotatable=0;points=[[0,0.5],[1,0.5]];portConstraint=eastwest;fontStyle=0" vertex="1" parent="fqb2mtGp8k7TycbTAKJE-65">
          <mxGeometry y="476" width="260" height="26" as="geometry" />
        </mxCell>
        <mxCell id="fqb2mtGp8k7TycbTAKJE-86" value="- getLivrosDisponiveis(String): List&lt;Livro&gt;" style="text;align=left;verticalAlign=top;spacingLeft=4;spacingRight=4;overflow=hidden;rotatable=0;points=[[0,0.5],[1,0.5]];portConstraint=eastwest;fontStyle=0" vertex="1" parent="fqb2mtGp8k7TycbTAKJE-65">
          <mxGeometry y="502" width="260" height="26" as="geometry" />
        </mxCell>
        <mxCell id="fqb2mtGp8k7TycbTAKJE-93" value="- getLivrosReservados(String): List&lt;Livro&gt;" style="text;align=left;verticalAlign=top;spacingLeft=4;spacingRight=4;overflow=hidden;rotatable=0;points=[[0,0.5],[1,0.5]];portConstraint=eastwest;fontStyle=0" vertex="1" parent="fqb2mtGp8k7TycbTAKJE-65">
          <mxGeometry y="528" width="260" height="26" as="geometry" />
        </mxCell>
        <mxCell id="fqb2mtGp8k7TycbTAKJE-87" value="- verificaDevedor(): boolean" style="text;align=left;verticalAlign=top;spacingLeft=4;spacingRight=4;overflow=hidden;rotatable=0;points=[[0,0.5],[1,0.5]];portConstraint=eastwest;fontStyle=0" vertex="1" parent="fqb2mtGp8k7TycbTAKJE-65">
          <mxGeometry y="554" width="260" height="26" as="geometry" />
        </mxCell>
        <mxCell id="fqb2mtGp8k7TycbTAKJE-123" value="+ getCodigo(): String" style="text;align=left;verticalAlign=top;spacingLeft=4;spacingRight=4;overflow=hidden;rotatable=0;points=[[0,0.5],[1,0.5]];portConstraint=eastwest;fontStyle=0" vertex="1" parent="fqb2mtGp8k7TycbTAKJE-65">
          <mxGeometry y="580" width="260" height="26" as="geometry" />
        </mxCell>
        <mxCell id="fqb2mtGp8k7TycbTAKJE-124" value="+ getNome(): String" style="text;align=left;verticalAlign=top;spacingLeft=4;spacingRight=4;overflow=hidden;rotatable=0;points=[[0,0.5],[1,0.5]];portConstraint=eastwest;fontStyle=0" vertex="1" parent="fqb2mtGp8k7TycbTAKJE-65">
          <mxGeometry y="606" width="260" height="26" as="geometry" />
        </mxCell>
        <mxCell id="fqb2mtGp8k7TycbTAKJE-77" value="+ exibir(): String" style="text;align=left;verticalAlign=top;spacingLeft=4;spacingRight=4;overflow=hidden;rotatable=0;points=[[0,0.5],[1,0.5]];portConstraint=eastwest;fontStyle=0" vertex="1" parent="fqb2mtGp8k7TycbTAKJE-65">
          <mxGeometry y="632" width="260" height="26" as="geometry" />
        </mxCell>
        <mxCell id="fqb2mtGp8k7TycbTAKJE-94" value="+ update(Livro): void" style="text;align=left;verticalAlign=top;spacingLeft=4;spacingRight=4;overflow=hidden;rotatable=0;points=[[0,0.5],[1,0.5]];portConstraint=eastwest;fontStyle=0" vertex="1" parent="fqb2mtGp8k7TycbTAKJE-65">
          <mxGeometry y="658" width="260" height="26" as="geometry" />
        </mxCell>
        <mxCell id="fqb2mtGp8k7TycbTAKJE-103" value="+ getQuantidadeNotificacoes(): int" style="text;align=left;verticalAlign=top;spacingLeft=4;spacingRight=4;overflow=hidden;rotatable=0;points=[[0,0.5],[1,0.5]];portConstraint=eastwest;" vertex="1" parent="fqb2mtGp8k7TycbTAKJE-65">
          <mxGeometry y="684" width="260" height="26" as="geometry" />
        </mxCell>
        <mxCell id="fqb2mtGp8k7TycbTAKJE-89" value="" style="endArrow=block;dashed=1;endFill=0;endSize=12;html=1;rounded=0;" edge="1" parent="WIyWlLk6GJQsqaUBKTNV-1" source="fqb2mtGp8k7TycbTAKJE-41" target="fqb2mtGp8k7TycbTAKJE-2">
          <mxGeometry width="160" relative="1" as="geometry">
            <mxPoint x="992" y="453" as="sourcePoint" />
            <mxPoint x="1078" y="306" as="targetPoint" />
            <Array as="points" />
          </mxGeometry>
        </mxCell>
        <mxCell id="fqb2mtGp8k7TycbTAKJE-91" value="" style="endArrow=block;dashed=1;endFill=0;endSize=12;html=1;rounded=0;" edge="1" parent="WIyWlLk6GJQsqaUBKTNV-1" source="fqb2mtGp8k7TycbTAKJE-65" target="fqb2mtGp8k7TycbTAKJE-2">
          <mxGeometry width="160" relative="1" as="geometry">
            <mxPoint x="1166" y="367" as="sourcePoint" />
            <mxPoint x="1604" y="530" as="targetPoint" />
            <Array as="points" />
          </mxGeometry>
        </mxCell>
        <mxCell id="fqb2mtGp8k7TycbTAKJE-98" value="&lt;&lt;Interface&gt;&gt;&#xa;Observer" style="swimlane;fontStyle=1;align=center;verticalAlign=top;childLayout=stackLayout;horizontal=1;startSize=51;horizontalStack=0;resizeParent=1;resizeLast=0;collapsible=1;marginBottom=0;rounded=0;shadow=0;strokeWidth=1;" vertex="1" parent="WIyWlLk6GJQsqaUBKTNV-1">
          <mxGeometry x="1681.6" y="1038" width="197" height="138" as="geometry">
            <mxRectangle x="30" y="360" width="160" height="26" as="alternateBounds" />
          </mxGeometry>
        </mxCell>
        <mxCell id="fqb2mtGp8k7TycbTAKJE-99" value=" " style="text;align=left;verticalAlign=top;spacingLeft=4;spacingRight=4;overflow=hidden;rotatable=0;points=[[0,0.5],[1,0.5]];portConstraint=eastwest;" vertex="1" parent="fqb2mtGp8k7TycbTAKJE-98">
          <mxGeometry y="51" width="197" height="26" as="geometry" />
        </mxCell>
        <mxCell id="fqb2mtGp8k7TycbTAKJE-100" value="" style="line;html=1;strokeWidth=1;align=left;verticalAlign=middle;spacingTop=-1;spacingLeft=3;spacingRight=3;rotatable=0;labelPosition=right;points=[];portConstraint=eastwest;" vertex="1" parent="fqb2mtGp8k7TycbTAKJE-98">
          <mxGeometry y="77" width="197" height="8" as="geometry" />
        </mxCell>
        <mxCell id="fqb2mtGp8k7TycbTAKJE-101" value="+ update(Livro): void" style="text;align=left;verticalAlign=top;spacingLeft=4;spacingRight=4;overflow=hidden;rotatable=0;points=[[0,0.5],[1,0.5]];portConstraint=eastwest;fontStyle=0" vertex="1" parent="fqb2mtGp8k7TycbTAKJE-98">
          <mxGeometry y="85" width="197" height="26" as="geometry" />
        </mxCell>
        <mxCell id="fqb2mtGp8k7TycbTAKJE-102" value="+ getQuantidadeNotificacoes(): int" style="text;align=left;verticalAlign=top;spacingLeft=4;spacingRight=4;overflow=hidden;rotatable=0;points=[[0,0.5],[1,0.5]];portConstraint=eastwest;" vertex="1" parent="fqb2mtGp8k7TycbTAKJE-98">
          <mxGeometry y="111" width="197" height="26" as="geometry" />
        </mxCell>
        <mxCell id="fqb2mtGp8k7TycbTAKJE-104" value="" style="endArrow=block;dashed=1;endFill=0;endSize=12;html=1;rounded=0;" edge="1" parent="WIyWlLk6GJQsqaUBKTNV-1" source="fqb2mtGp8k7TycbTAKJE-65" target="fqb2mtGp8k7TycbTAKJE-98">
          <mxGeometry width="160" relative="1" as="geometry">
            <mxPoint x="1296.6" y="1183" as="sourcePoint" />
            <mxPoint x="1086.6" y="1036" as="targetPoint" />
            <Array as="points" />
          </mxGeometry>
        </mxCell>
        <mxCell id="fqb2mtGp8k7TycbTAKJE-106" value="&lt;&lt;Interface&gt;&gt;&#xa;Subject" style="swimlane;fontStyle=1;align=center;verticalAlign=top;childLayout=stackLayout;horizontal=1;startSize=45;horizontalStack=0;resizeParent=1;resizeLast=0;collapsible=1;marginBottom=0;rounded=0;shadow=0;strokeWidth=1;" vertex="1" parent="WIyWlLk6GJQsqaUBKTNV-1">
          <mxGeometry x="1676.1" y="1246" width="208" height="131" as="geometry">
            <mxRectangle x="550" y="140" width="160" height="26" as="alternateBounds" />
          </mxGeometry>
        </mxCell>
        <mxCell id="fqb2mtGp8k7TycbTAKJE-114" value="" style="line;html=1;strokeWidth=1;align=left;verticalAlign=middle;spacingTop=-1;spacingLeft=3;spacingRight=3;rotatable=0;labelPosition=right;points=[];portConstraint=eastwest;" vertex="1" parent="fqb2mtGp8k7TycbTAKJE-106">
          <mxGeometry y="45" width="208" height="8" as="geometry" />
        </mxCell>
        <mxCell id="fqb2mtGp8k7TycbTAKJE-116" value="+ addObserver(Observer): void" style="text;align=left;verticalAlign=top;spacingLeft=4;spacingRight=4;overflow=hidden;rotatable=0;points=[[0,0.5],[1,0.5]];portConstraint=eastwest;fontStyle=0" vertex="1" parent="fqb2mtGp8k7TycbTAKJE-106">
          <mxGeometry y="53" width="208" height="26" as="geometry" />
        </mxCell>
        <mxCell id="fqb2mtGp8k7TycbTAKJE-117" value="+ removeObserver(Observer): void" style="text;align=left;verticalAlign=top;spacingLeft=4;spacingRight=4;overflow=hidden;rotatable=0;points=[[0,0.5],[1,0.5]];portConstraint=eastwest;fontStyle=0" vertex="1" parent="fqb2mtGp8k7TycbTAKJE-106">
          <mxGeometry y="79" width="208" height="26" as="geometry" />
        </mxCell>
        <mxCell id="fqb2mtGp8k7TycbTAKJE-118" value="+ notifyObserver(Livro): void" style="text;align=left;verticalAlign=top;spacingLeft=4;spacingRight=4;overflow=hidden;rotatable=0;points=[[0,0.5],[1,0.5]];portConstraint=eastwest;fontStyle=0" vertex="1" parent="fqb2mtGp8k7TycbTAKJE-106">
          <mxGeometry y="105" width="208" height="26" as="geometry" />
        </mxCell>
        <mxCell id="fqb2mtGp8k7TycbTAKJE-115" value="" style="endArrow=block;dashed=1;endFill=0;endSize=12;html=1;rounded=0;" edge="1" parent="WIyWlLk6GJQsqaUBKTNV-1" source="M-NeAkC2m4nGX7HUwaiX-9" target="fqb2mtGp8k7TycbTAKJE-106">
          <mxGeometry width="160" relative="1" as="geometry">
            <mxPoint x="603.6" y="820" as="sourcePoint" />
            <mxPoint x="743.6" y="451" as="targetPoint" />
            <Array as="points" />
          </mxGeometry>
        </mxCell>
        <mxCell id="fqb2mtGp8k7TycbTAKJE-127" value="" style="endArrow=open;endFill=1;endSize=12;html=1;rounded=0;" edge="1" parent="WIyWlLk6GJQsqaUBKTNV-1" source="M-NeAkC2m4nGX7HUwaiX-9" target="fqb2mtGp8k7TycbTAKJE-2">
          <mxGeometry width="160" relative="1" as="geometry">
            <mxPoint x="816" y="486" as="sourcePoint" />
            <mxPoint x="976" y="486" as="targetPoint" />
            <Array as="points" />
          </mxGeometry>
        </mxCell>
        <mxCell id="fqb2mtGp8k7TycbTAKJE-128" value="0...*" style="edgeLabel;html=1;align=center;verticalAlign=middle;resizable=0;points=[];" vertex="1" connectable="0" parent="fqb2mtGp8k7TycbTAKJE-127">
          <mxGeometry x="-0.9107" y="2" relative="1" as="geometry">
            <mxPoint x="-10" y="-19" as="offset" />
          </mxGeometry>
        </mxCell>
        <mxCell id="fqb2mtGp8k7TycbTAKJE-129" value="0...1" style="edgeLabel;html=1;align=center;verticalAlign=middle;resizable=0;points=[];" vertex="1" connectable="0" parent="fqb2mtGp8k7TycbTAKJE-127">
          <mxGeometry x="0.8269" y="2" relative="1" as="geometry">
            <mxPoint x="18" y="-14" as="offset" />
          </mxGeometry>
        </mxCell>
        <mxCell id="fqb2mtGp8k7TycbTAKJE-145" value="Emprestimo" style="swimlane;fontStyle=1;align=center;verticalAlign=top;childLayout=stackLayout;horizontal=1;startSize=36;horizontalStack=0;resizeParent=1;resizeLast=0;collapsible=1;marginBottom=0;rounded=0;shadow=0;strokeWidth=1;" vertex="1" parent="WIyWlLk6GJQsqaUBKTNV-1">
          <mxGeometry x="628" y="1206" width="221" height="278" as="geometry">
            <mxRectangle x="550" y="140" width="160" height="26" as="alternateBounds" />
          </mxGeometry>
        </mxCell>
        <mxCell id="fqb2mtGp8k7TycbTAKJE-150" value="- usuario: IUsuario" style="text;align=left;verticalAlign=top;spacingLeft=4;spacingRight=4;overflow=hidden;rotatable=0;points=[[0,0.5],[1,0.5]];portConstraint=eastwest;rounded=0;shadow=0;html=0;" vertex="1" parent="fqb2mtGp8k7TycbTAKJE-145">
          <mxGeometry y="36" width="221" height="26" as="geometry" />
        </mxCell>
        <mxCell id="fqb2mtGp8k7TycbTAKJE-151" value="- livro: Livro" style="text;align=left;verticalAlign=top;spacingLeft=4;spacingRight=4;overflow=hidden;rotatable=0;points=[[0,0.5],[1,0.5]];portConstraint=eastwest;rounded=0;shadow=0;html=0;" vertex="1" parent="fqb2mtGp8k7TycbTAKJE-145">
          <mxGeometry y="62" width="221" height="26" as="geometry" />
        </mxCell>
        <mxCell id="fqb2mtGp8k7TycbTAKJE-152" value="- emprestimoAtivo: boolean" style="text;align=left;verticalAlign=top;spacingLeft=4;spacingRight=4;overflow=hidden;rotatable=0;points=[[0,0.5],[1,0.5]];portConstraint=eastwest;rounded=0;shadow=0;html=0;" vertex="1" parent="fqb2mtGp8k7TycbTAKJE-145">
          <mxGeometry y="88" width="221" height="26" as="geometry" />
        </mxCell>
        <mxCell id="fqb2mtGp8k7TycbTAKJE-153" value="- dataEmprestimo: LocalDate" style="text;align=left;verticalAlign=top;spacingLeft=4;spacingRight=4;overflow=hidden;rotatable=0;points=[[0,0.5],[1,0.5]];portConstraint=eastwest;rounded=0;shadow=0;html=0;" vertex="1" parent="fqb2mtGp8k7TycbTAKJE-145">
          <mxGeometry y="114" width="221" height="26" as="geometry" />
        </mxCell>
        <mxCell id="fqb2mtGp8k7TycbTAKJE-154" value="- dataDevolucaoPrevisao: LocalDate" style="text;align=left;verticalAlign=top;spacingLeft=4;spacingRight=4;overflow=hidden;rotatable=0;points=[[0,0.5],[1,0.5]];portConstraint=eastwest;rounded=0;shadow=0;html=0;" vertex="1" parent="fqb2mtGp8k7TycbTAKJE-145">
          <mxGeometry y="140" width="221" height="26" as="geometry" />
        </mxCell>
        <mxCell id="fqb2mtGp8k7TycbTAKJE-155" value="- dataDevolucaoReal: LocalDate" style="text;align=left;verticalAlign=top;spacingLeft=4;spacingRight=4;overflow=hidden;rotatable=0;points=[[0,0.5],[1,0.5]];portConstraint=eastwest;rounded=0;shadow=0;html=0;" vertex="1" parent="fqb2mtGp8k7TycbTAKJE-145">
          <mxGeometry y="166" width="221" height="26" as="geometry" />
        </mxCell>
        <mxCell id="fqb2mtGp8k7TycbTAKJE-146" value="" style="line;html=1;strokeWidth=1;align=left;verticalAlign=middle;spacingTop=-1;spacingLeft=3;spacingRight=3;rotatable=0;labelPosition=right;points=[];portConstraint=eastwest;" vertex="1" parent="fqb2mtGp8k7TycbTAKJE-145">
          <mxGeometry y="192" width="221" height="8" as="geometry" />
        </mxCell>
        <mxCell id="fqb2mtGp8k7TycbTAKJE-156" value="" style="endArrow=open;endFill=1;endSize=12;html=1;rounded=0;" edge="1" parent="WIyWlLk6GJQsqaUBKTNV-1" source="M-NeAkC2m4nGX7HUwaiX-9" target="fqb2mtGp8k7TycbTAKJE-145">
          <mxGeometry width="160" relative="1" as="geometry">
            <mxPoint x="712" y="470" as="sourcePoint" />
            <mxPoint x="1438" y="176" as="targetPoint" />
            <Array as="points" />
          </mxGeometry>
        </mxCell>
        <mxCell id="fqb2mtGp8k7TycbTAKJE-157" value="0...1" style="edgeLabel;html=1;align=center;verticalAlign=middle;resizable=0;points=[];" vertex="1" connectable="0" parent="fqb2mtGp8k7TycbTAKJE-156">
          <mxGeometry x="-0.9107" y="2" relative="1" as="geometry">
            <mxPoint x="8" y="-8" as="offset" />
          </mxGeometry>
        </mxCell>
        <mxCell id="fqb2mtGp8k7TycbTAKJE-158" value="0...1" style="edgeLabel;html=1;align=center;verticalAlign=middle;resizable=0;points=[];" vertex="1" connectable="0" parent="fqb2mtGp8k7TycbTAKJE-156">
          <mxGeometry x="0.8269" y="2" relative="1" as="geometry">
            <mxPoint x="-13" y="-12" as="offset" />
          </mxGeometry>
        </mxCell>
        <mxCell id="fqb2mtGp8k7TycbTAKJE-159" value="Reserva" style="swimlane;fontStyle=1;align=center;verticalAlign=top;childLayout=stackLayout;horizontal=1;startSize=36;horizontalStack=0;resizeParent=1;resizeLast=0;collapsible=1;marginBottom=0;rounded=0;shadow=0;strokeWidth=1;" vertex="1" parent="WIyWlLk6GJQsqaUBKTNV-1">
          <mxGeometry x="962" y="960" width="221" height="184" as="geometry">
            <mxRectangle x="550" y="140" width="160" height="26" as="alternateBounds" />
          </mxGeometry>
        </mxCell>
        <mxCell id="fqb2mtGp8k7TycbTAKJE-160" value="- usuario: IUsuario" style="text;align=left;verticalAlign=top;spacingLeft=4;spacingRight=4;overflow=hidden;rotatable=0;points=[[0,0.5],[1,0.5]];portConstraint=eastwest;rounded=0;shadow=0;html=0;" vertex="1" parent="fqb2mtGp8k7TycbTAKJE-159">
          <mxGeometry y="36" width="221" height="26" as="geometry" />
        </mxCell>
        <mxCell id="fqb2mtGp8k7TycbTAKJE-161" value="- livro: Livro" style="text;align=left;verticalAlign=top;spacingLeft=4;spacingRight=4;overflow=hidden;rotatable=0;points=[[0,0.5],[1,0.5]];portConstraint=eastwest;rounded=0;shadow=0;html=0;" vertex="1" parent="fqb2mtGp8k7TycbTAKJE-159">
          <mxGeometry y="62" width="221" height="26" as="geometry" />
        </mxCell>
        <mxCell id="fqb2mtGp8k7TycbTAKJE-163" value="- data: LocalDate" style="text;align=left;verticalAlign=top;spacingLeft=4;spacingRight=4;overflow=hidden;rotatable=0;points=[[0,0.5],[1,0.5]];portConstraint=eastwest;rounded=0;shadow=0;html=0;" vertex="1" parent="fqb2mtGp8k7TycbTAKJE-159">
          <mxGeometry y="88" width="221" height="26" as="geometry" />
        </mxCell>
        <mxCell id="fqb2mtGp8k7TycbTAKJE-162" value="- reservaAtiva: boolean" style="text;align=left;verticalAlign=top;spacingLeft=4;spacingRight=4;overflow=hidden;rotatable=0;points=[[0,0.5],[1,0.5]];portConstraint=eastwest;rounded=0;shadow=0;html=0;" vertex="1" parent="fqb2mtGp8k7TycbTAKJE-159">
          <mxGeometry y="114" width="221" height="26" as="geometry" />
        </mxCell>
        <mxCell id="fqb2mtGp8k7TycbTAKJE-166" value="" style="line;html=1;strokeWidth=1;align=left;verticalAlign=middle;spacingTop=-1;spacingLeft=3;spacingRight=3;rotatable=0;labelPosition=right;points=[];portConstraint=eastwest;" vertex="1" parent="fqb2mtGp8k7TycbTAKJE-159">
          <mxGeometry y="140" width="221" height="8" as="geometry" />
        </mxCell>
        <mxCell id="fqb2mtGp8k7TycbTAKJE-167" value="" style="endArrow=open;endFill=1;endSize=12;html=1;rounded=0;" edge="1" parent="WIyWlLk6GJQsqaUBKTNV-1" source="M-NeAkC2m4nGX7HUwaiX-9" target="fqb2mtGp8k7TycbTAKJE-159">
          <mxGeometry width="160" relative="1" as="geometry">
            <mxPoint x="734" y="276" as="sourcePoint" />
            <mxPoint x="873" y="285" as="targetPoint" />
            <Array as="points" />
          </mxGeometry>
        </mxCell>
        <mxCell id="fqb2mtGp8k7TycbTAKJE-168" value="1...1" style="edgeLabel;html=1;align=center;verticalAlign=middle;resizable=0;points=[];" vertex="1" connectable="0" parent="fqb2mtGp8k7TycbTAKJE-167">
          <mxGeometry x="-0.9107" y="2" relative="1" as="geometry">
            <mxPoint x="-19" y="-9" as="offset" />
          </mxGeometry>
        </mxCell>
        <mxCell id="fqb2mtGp8k7TycbTAKJE-169" value="0...1" style="edgeLabel;html=1;align=center;verticalAlign=middle;resizable=0;points=[];" vertex="1" connectable="0" parent="fqb2mtGp8k7TycbTAKJE-167">
          <mxGeometry x="0.8269" y="2" relative="1" as="geometry">
            <mxPoint x="-13" y="-12" as="offset" />
          </mxGeometry>
        </mxCell>
        <mxCell id="fqb2mtGp8k7TycbTAKJE-170" value="" style="endArrow=open;endFill=1;endSize=12;html=1;rounded=0;" edge="1" parent="WIyWlLk6GJQsqaUBKTNV-1" source="fqb2mtGp8k7TycbTAKJE-159" target="fqb2mtGp8k7TycbTAKJE-2">
          <mxGeometry width="160" relative="1" as="geometry">
            <mxPoint x="980" y="316" as="sourcePoint" />
            <mxPoint x="1119" y="325" as="targetPoint" />
            <Array as="points" />
          </mxGeometry>
        </mxCell>
        <mxCell id="fqb2mtGp8k7TycbTAKJE-171" value="0...1" style="edgeLabel;html=1;align=center;verticalAlign=middle;resizable=0;points=[];" vertex="1" connectable="0" parent="fqb2mtGp8k7TycbTAKJE-170">
          <mxGeometry x="-0.9107" y="2" relative="1" as="geometry">
            <mxPoint x="8" y="-8" as="offset" />
          </mxGeometry>
        </mxCell>
        <mxCell id="fqb2mtGp8k7TycbTAKJE-172" value="0...1" style="edgeLabel;html=1;align=center;verticalAlign=middle;resizable=0;points=[];" vertex="1" connectable="0" parent="fqb2mtGp8k7TycbTAKJE-170">
          <mxGeometry x="0.8269" y="2" relative="1" as="geometry">
            <mxPoint x="-13" y="-12" as="offset" />
          </mxGeometry>
        </mxCell>
        <mxCell id="fqb2mtGp8k7TycbTAKJE-173" value="" style="endArrow=open;endFill=1;endSize=12;html=1;rounded=0;" edge="1" parent="WIyWlLk6GJQsqaUBKTNV-1" source="fqb2mtGp8k7TycbTAKJE-145" target="fqb2mtGp8k7TycbTAKJE-2">
          <mxGeometry width="160" relative="1" as="geometry">
            <mxPoint x="1080" y="637" as="sourcePoint" />
            <mxPoint x="1219" y="646" as="targetPoint" />
            <Array as="points">
              <mxPoint x="823" y="1027" />
            </Array>
          </mxGeometry>
        </mxCell>
        <mxCell id="fqb2mtGp8k7TycbTAKJE-174" value="0...*" style="edgeLabel;html=1;align=center;verticalAlign=middle;resizable=0;points=[];" vertex="1" connectable="0" parent="fqb2mtGp8k7TycbTAKJE-173">
          <mxGeometry x="-0.9107" y="2" relative="1" as="geometry">
            <mxPoint x="-28" y="11" as="offset" />
          </mxGeometry>
        </mxCell>
        <mxCell id="fqb2mtGp8k7TycbTAKJE-175" value="1...1" style="edgeLabel;html=1;align=center;verticalAlign=middle;resizable=0;points=[];" vertex="1" connectable="0" parent="fqb2mtGp8k7TycbTAKJE-173">
          <mxGeometry x="0.8269" y="2" relative="1" as="geometry">
            <mxPoint x="-13" y="-12" as="offset" />
          </mxGeometry>
        </mxCell>
        <mxCell id="fqb2mtGp8k7TycbTAKJE-180" value="" style="endArrow=open;endFill=1;endSize=12;html=1;rounded=0;" edge="1" parent="WIyWlLk6GJQsqaUBKTNV-1" source="M-NeAkC2m4nGX7HUwaiX-9" target="fqb2mtGp8k7TycbTAKJE-98">
          <mxGeometry width="160" relative="1" as="geometry">
            <mxPoint x="1366.6" y="1239" as="sourcePoint" />
            <mxPoint x="1505.6" y="1248" as="targetPoint" />
            <Array as="points" />
          </mxGeometry>
        </mxCell>
        <mxCell id="fqb2mtGp8k7TycbTAKJE-181" value="0...1" style="edgeLabel;html=1;align=center;verticalAlign=middle;resizable=0;points=[];" vertex="1" connectable="0" parent="fqb2mtGp8k7TycbTAKJE-180">
          <mxGeometry x="-0.9107" y="2" relative="1" as="geometry">
            <mxPoint x="11" y="-18" as="offset" />
          </mxGeometry>
        </mxCell>
        <mxCell id="fqb2mtGp8k7TycbTAKJE-182" value="0...*" style="edgeLabel;html=1;align=center;verticalAlign=middle;resizable=0;points=[];" vertex="1" connectable="0" parent="fqb2mtGp8k7TycbTAKJE-180">
          <mxGeometry x="0.8269" y="2" relative="1" as="geometry">
            <mxPoint x="-17" y="-15" as="offset" />
          </mxGeometry>
        </mxCell>
        <mxCell id="fqb2mtGp8k7TycbTAKJE-183" value="" style="endArrow=open;endFill=1;endSize=12;html=1;rounded=0;" edge="1" parent="WIyWlLk6GJQsqaUBKTNV-1" source="fqb2mtGp8k7TycbTAKJE-14" target="MtVjQjLznADQQLDuYncj-23">
          <mxGeometry width="160" relative="1" as="geometry">
            <mxPoint x="613" y="365" as="sourcePoint" />
            <mxPoint x="752" y="374" as="targetPoint" />
            <Array as="points" />
          </mxGeometry>
        </mxCell>
        <mxCell id="fqb2mtGp8k7TycbTAKJE-184" value="1...1" style="edgeLabel;html=1;align=center;verticalAlign=middle;resizable=0;points=[];" vertex="1" connectable="0" parent="fqb2mtGp8k7TycbTAKJE-183">
          <mxGeometry x="-0.9107" y="2" relative="1" as="geometry">
            <mxPoint x="-13" y="-12" as="offset" />
          </mxGeometry>
        </mxCell>
        <mxCell id="fqb2mtGp8k7TycbTAKJE-185" value="1...1" style="edgeLabel;html=1;align=center;verticalAlign=middle;resizable=0;points=[];" vertex="1" connectable="0" parent="fqb2mtGp8k7TycbTAKJE-183">
          <mxGeometry x="0.8269" y="2" relative="1" as="geometry">
            <mxPoint x="26" y="-6" as="offset" />
          </mxGeometry>
        </mxCell>
        <mxCell id="fqb2mtGp8k7TycbTAKJE-198" value="" style="endArrow=open;endFill=1;endSize=12;html=1;rounded=0;" edge="1" parent="WIyWlLk6GJQsqaUBKTNV-1" source="fqb2mtGp8k7TycbTAKJE-14" target="fqb2mtGp8k7TycbTAKJE-2">
          <mxGeometry width="160" relative="1" as="geometry">
            <mxPoint x="437" y="995" as="sourcePoint" />
            <mxPoint x="512" y="450" as="targetPoint" />
            <Array as="points" />
          </mxGeometry>
        </mxCell>
        <mxCell id="fqb2mtGp8k7TycbTAKJE-199" value="1...1" style="edgeLabel;html=1;align=center;verticalAlign=middle;resizable=0;points=[];" vertex="1" connectable="0" parent="fqb2mtGp8k7TycbTAKJE-198">
          <mxGeometry x="-0.9107" y="2" relative="1" as="geometry">
            <mxPoint x="-5" y="-19" as="offset" />
          </mxGeometry>
        </mxCell>
        <mxCell id="fqb2mtGp8k7TycbTAKJE-200" value="1...1" style="edgeLabel;html=1;align=center;verticalAlign=middle;resizable=0;points=[];" vertex="1" connectable="0" parent="fqb2mtGp8k7TycbTAKJE-198">
          <mxGeometry x="0.8269" y="2" relative="1" as="geometry">
            <mxPoint x="-30" y="6" as="offset" />
          </mxGeometry>
        </mxCell>
      </root>
    </mxGraphModel>
  </diagram>
</mxfile>
